<?xml version="1.0" encoding="UTF-8" standalone="no"?>
<!-- Created with Inkscape (http://www.inkscape.org/) -->

<svg
   xmlns:dc="http://purl.org/dc/elements/1.1/"
   xmlns:cc="http://creativecommons.org/ns#"
   xmlns:rdf="http://www.w3.org/1999/02/22-rdf-syntax-ns#"
   xmlns:svg="http://www.w3.org/2000/svg"
   xmlns="http://www.w3.org/2000/svg"
   xmlns:sodipodi="http://sodipodi.sourceforge.net/DTD/sodipodi-0.dtd"
   xmlns:inkscape="http://www.inkscape.org/namespaces/inkscape"
   width="32.652905mm"
   height="32.753254mm"
   viewBox="0 0 32.652905 32.753254"
   version="1.1"
   id="CHOMKER"
   inkscape:version="0.92.4 (5da689c313, 2019-01-14)"
   sodipodi:docname="CHOMKER.svg">
  <defs
     id="defs2" />
  <sodipodi:namedview
     id="base"
     pagecolor="#ffffff"
     bordercolor="#666666"
     borderopacity="1.0"
     inkscape:pageopacity="0.0"
     inkscape:pageshadow="2"
     inkscape:zoom="7.9195959"
     inkscape:cx="90.169297"
     inkscape:cy="56.295764"
     inkscape:document-units="mm"
     inkscape:current-layer="layer1"
     showgrid="false"
     inkscape:window-width="3840"
     inkscape:window-height="2097"
     inkscape:window-x="1912"
     inkscape:window-y="-8"
     inkscape:window-maximized="1" />
  <metadata
     id="metadata5">
    <rdf:RDF>
      <cc:Work
         rdf:about="">
        <dc:format>image/svg+xml</dc:format>
        <dc:type
           rdf:resource="http://purl.org/dc/dcmitype/StillImage" />
        <dc:title></dc:title>
      </cc:Work>
    </rdf:RDF>
  </metadata>
  <g
     inkscape:label="Layer 1"
     inkscape:groupmode="layer"
     id="layer1"
     transform="translate(-39.889772,-196.55693)">
    <g
       id="g980"
       transform="translate(-10.156242,-1.2695303)">
      <g
         transform="translate(17.439337,29.867369)"
         id="g966">
        <path
           inkscape:connector-curvature="0"
           id="Skintone"
           d="m 48.744794,200.44656 c -0.793712,-0.31427 -2.645833,-2.06662 -2.645833,-2.50331 0,-0.17056 -0.327422,-0.3799 -0.727604,-0.46521 -2.634892,-0.56165 -4.50143,-3.81041 -4.243276,-7.38552 0.105181,-1.45664 0.08307,-1.52136 -0.519736,-1.52136 -0.791092,0 -1.616797,0.42987 -2.37164,1.23469 -0.365213,0.38939 -1.01357,0.68206 -1.719792,0.77631 -1.025549,0.13687 -1.239896,0.0596 -2.249225,-0.81062 -1.240041,-1.06916 -1.658672,-2.14336 -1.661002,-4.2621 -0.0027,-2.47467 0.573203,-3.52662 3.703496,-6.76458 3.213317,-3.32384 3.35748,-3.64203 2.912386,-6.42821 -0.230914,-1.44546 -0.208629,-1.877 0.13083,-2.53344 0.225033,-0.43517 0.495391,-0.80006 0.600795,-0.81087 0.105403,-0.0108 0.446881,-0.0677 0.758839,-0.12635 2.115437,-0.39787 3.311412,4.59256 1.84213,7.68663 -0.345518,0.72761 -1.594511,2.36654 -2.775541,3.64208 -1.18103,1.27554 -2.147327,2.43158 -2.147327,2.56898 0,0.1374 -0.324716,0.55091 -0.721591,0.91891 -0.553039,0.51281 -0.721591,0.91534 -0.721591,1.72329 0,1.60993 0.365375,1.78667 2.004776,0.96972 1.605674,-0.80014 2.083053,-0.84588 3.137514,-0.3006 l 0.762412,0.39426 0.648639,-1.41681 c 0.831753,-1.81679 2.146234,-3.86698 3.710878,-5.78785 0.68157,-0.83674 1.143346,-1.52135 1.026168,-1.52135 -0.371053,0 -0.953187,-3.23231 -0.939916,-5.21891 0.02007,-3.00442 0.765834,-3.44531 2.696437,-1.59411 0.644993,0.61846 1.097006,0.98867 1.004474,0.82269 -0.354605,-0.63609 1.841474,-1.49107 4.709488,-1.8335 1.101043,-0.13146 1.886712,-0.41386 2.610925,-0.93848 1.10014,-0.79694 2.714802,-1.24711 3.09177,-0.86199 0.124679,0.12737 0.29922,0.94596 0.387863,1.81909 0.272759,2.68658 0.339492,2.85174 1.07741,2.66654 0.357568,-0.0897 1.215591,-0.21663 1.906714,-0.28197 1.189755,-0.11247 1.167871,-0.0967 -0.411443,0.29571 -2.159957,0.53675 -2.187493,1.15571 -0.05876,1.32087 0.796515,0.0618 1.554427,0.21857 1.684248,0.34839 0.138324,0.13833 -0.421841,0.17638 -1.353172,0.0919 l -1.589204,-0.1441 0.285332,1.2469 c 0.205473,0.89791 0.204113,1.46208 -0.0049,2.01571 -0.370388,0.98127 -0.228791,1.48596 1.062799,3.78815 1.372357,2.44614 1.575999,4.25114 0.670293,5.94118 -0.577522,1.07764 -0.600919,1.29622 -0.373213,3.4864 0.202877,1.95135 0.165195,2.62389 -0.228508,4.07834 -0.259297,0.95792 -0.709244,2.04398 -0.999884,2.41347 -0.487762,0.62008 -0.495631,0.70805 -0.102222,1.14276 0.964044,1.06526 0.154583,1.88451 -1.861992,1.88451 -1.264954,0 -1.560875,-0.10421 -2.248498,-0.79184 -0.504899,-0.5049 -0.739404,-0.96031 -0.647144,-1.25677 0.180554,-0.58019 -0.22306,-1.3175 -0.487233,-0.89006 -0.254833,0.41233 -3.053567,0.36205 -3.881022,-0.0697 -0.540427,-0.282 -0.81393,-0.2922 -1.271273,-0.0474 l -0.582705,0.31185 0.67596,0.30799 c 0.814795,0.37125 0.91975,1.36345 0.1651,1.5608 -0.287625,0.0752 -0.452083,0.28676 -0.376354,0.4841 0.300498,0.78309 -1.905855,1.19509 -3.346121,0.62483 z"
           style="fill:#e4ddae;stroke-width:0.26458332" />
        <path
           inkscape:connector-curvature="0"
           id="Highlights"
           d="m 48.856522,200.3667 c -0.910885,-0.39663 -2.845326,-2.00639 -2.648089,-2.20362 0.06998,-0.07 0.433897,0.11397 0.808694,0.40878 0.626929,0.49315 0.74423,0.50472 1.466112,0.14459 0.431563,-0.21529 1.113446,-0.35363 1.515295,-0.30743 0.640428,0.0737 0.72582,0.19018 0.691622,0.94391 -0.03014,0.66425 0.06869,0.8599 0.434338,0.8599 0.284247,0 0.539673,-0.26425 0.639365,-0.66146 0.09131,-0.3638 0.282811,-0.66146 0.425559,-0.66146 0.478949,0 0.265655,-0.4643 -0.419534,-0.91326 -0.589431,-0.3862 -0.923547,-0.40701 -2.530907,-0.15762 -2.052808,0.3185 -3.701025,-0.003 -5.398431,-1.05163 -1.696714,-1.04863 -2.952672,-4.2203 -2.68773,-6.78734 0.140811,-1.36433 0.124543,-1.4089 -0.514324,-1.4089 -0.78207,0 -1.54266,0.37736 -2.442701,1.21193 -0.361522,0.33522 -1.11639,0.68705 -1.677483,0.78185 -0.856845,0.14476 -1.171634,0.0568 -1.966265,-0.54927 -1.84151,-1.40458 -2.407024,-4.03914 -1.490872,-6.94551 0.385061,-1.22156 0.883039,-1.88343 3.202545,-4.25659 1.510621,-1.54556 2.85482,-3.08988 2.987108,-3.43182 0.132288,-0.34194 0.164872,-1.71115 0.07241,-3.04271 -0.153884,-2.21605 -0.122677,-2.46177 0.368641,-2.90263 0.348369,-0.31259 0.842727,-0.45189 1.408534,-0.39688 1.18261,0.11498 1.806571,1.23474 2.004663,3.59758 0.220756,2.63317 -0.313437,4.02374 -2.509072,6.53145 -2.576501,2.94271 -4.551204,5.47804 -4.551204,5.84332 0,0.85525 0.36514,1.97178 0.644835,1.97178 0.172758,0 0.790979,-0.2304 1.373825,-0.512 1.67041,-0.80705 2.340067,-0.89648 3.237582,-0.43236 l 0.815319,0.42162 1.00807,-2.05663 c 1.012455,-2.06557 3.443811,-5.5662 4.544605,-6.54325 0.580733,-0.51545 0.59445,-0.51567 0.874874,-0.0146 0.336948,0.60209 1.513634,1.72887 1.805446,1.72887 0.112403,0 0.456771,-0.40839 0.765259,-0.90754 0.675243,-1.09257 2.200793,-2.47218 3.120231,-2.82175 1.122357,-0.42672 0.934688,-0.10043 -0.430255,0.74806 -1.199552,0.74568 -3.068381,3.0552 -3.563775,4.40415 -0.183411,0.49942 -0.803108,0.50497 -2.449151,0.0219 l -0.556259,-0.16324 0.582779,1.73173 c 0.320528,0.95245 0.734252,1.91424 0.919385,2.13731 0.278008,0.33498 0.264595,0.40559 -0.07705,0.40559 -0.227511,0 -0.486358,-0.11763 -0.575215,-0.26141 -0.195796,-0.3168 -0.971611,-3.12531 -1.043519,-3.77762 -0.07147,-0.64835 -0.647253,-1.19374 -0.887691,-0.84084 -0.103081,0.1513 -0.558356,0.80515 -1.011723,1.453 -0.453367,0.64785 -1.141409,1.80581 -1.528984,2.57323 -0.684568,1.3555 -0.691248,1.41339 -0.23403,2.02819 0.258858,0.34808 0.790827,0.82396 1.182154,1.05752 0.824398,0.49204 1.195952,1.39027 0.756759,1.82946 -0.167253,0.16725 -1.070733,0.30409 -2.007733,0.30409 -1.946181,0 -2.084126,0.14378 -1.821061,1.89802 0.154246,1.02859 0.24496,1.14469 0.894358,1.14469 0.397485,0 0.940823,0.24102 1.207416,0.53561 0.266593,0.29458 0.612469,0.48905 0.768611,0.43216 0.156143,-0.0569 0.879209,0.12906 1.606813,0.41324 0.727604,0.28417 1.858698,0.66249 2.513542,0.84071 0.897645,0.24429 1.211468,0.46685 1.275328,0.90442 0.08456,0.57938 -0.02892,0.66395 -1.275328,0.95047 -0.777623,0.17875 -1.492899,0.6041 -1.315011,0.78199 0.06868,0.0687 1.03905,0.0224 2.156379,-0.10295 2.470879,-0.2771 3.987376,-0.99222 4.444523,-2.09587 0.184007,-0.44423 0.449355,-0.80769 0.589661,-0.80769 0.140308,0 -0.04427,0.53563 -0.410168,1.1903 l -0.665274,1.1903 0.708798,0.19127 c 0.38984,0.1052 1.274347,0.19464 1.965571,0.19876 0.691224,0.004 1.256771,0.0968 1.256771,0.20593 0,0.36041 -3.0279,0.2029 -3.795488,-0.19744 -0.659683,-0.34406 -0.820756,-0.345 -1.302464,-0.008 -0.533964,0.374 -0.535136,0.3904 -0.04097,0.57338 1.005631,0.37237 1.214909,1.28376 0.357288,1.55596 -0.326318,0.10357 -0.490984,0.32339 -0.406728,0.54296 0.32103,0.83659 -1.69015,1.17377 -3.166576,0.53088 z M 37.659313,189.49929 c 1.170875,-0.85875 2.463835,-1.45729 3.148009,-1.45729 0.748997,0 1.162124,-1.07151 0.586568,-1.52136 -0.5957,-0.46559 -0.822726,-0.41136 -0.673108,0.16077 0.09665,0.36959 -0.153208,0.63836 -1.007334,1.08355 -1.099743,0.57322 -1.14879,0.57652 -1.542363,0.10381 -0.226503,-0.27204 -0.662897,-0.45174 -0.985542,-0.40582 -0.875353,0.12459 -1.669916,-0.82964 -1.669916,-2.00549 0,-1.08022 0.495587,-1.78494 3.926741,-5.58376 2.195743,-2.43103 2.605567,-3.04029 3.048271,-4.5317 0.498064,-1.67791 0.172517,-4.57503 -0.607377,-5.40519 -1.029582,-1.09594 -2.398885,-0.62176 -2.398885,0.83072 0,0.4089 0.170103,0.47119 1.056057,0.3867 0.791451,-0.0755 1.097063,0.006 1.219716,0.32578 0.254863,0.66416 -0.596421,1.74532 -1.374232,1.74532 -1.033622,0 -0.774159,1.0899 0.327021,1.37368 0.457427,0.11788 0.911197,0.42153 1.008377,0.67478 0.257204,0.67026 -0.826865,1.4747 -1.740955,1.29188 -1.067827,-0.21356 -1.41572,0.36519 -0.832682,1.38525 0.538587,0.94229 0.363966,1.40353 -0.796988,2.10516 -0.649236,0.39236 -0.766684,0.39812 -0.988136,0.0484 -0.138229,-0.21829 -0.258483,-0.69454 -0.267233,-1.05834 -0.01475,-0.61339 -0.103373,-0.56533 -1.219635,0.66146 -2.13595,2.34745 -2.437881,2.95788 -2.633898,5.3251 -0.160569,1.93915 -0.118588,2.25588 0.427864,3.22816 0.58133,1.03434 1.772077,1.87904 2.666743,1.89176 0.233141,0.003 0.828454,-0.29069 1.322917,-0.65335 z M 59.00405,199.8004 c -0.658707,-0.35747 -1.263422,-1.12116 -1.263422,-1.59556 0,-0.10488 0.218021,0.007 0.484491,0.24777 0.977072,0.88423 0.791716,0.0681 -0.194529,-0.8565 -0.99449,-0.93235 -2.089772,-2.41036 -1.786202,-2.41036 0.08366,0 0.708964,0.59531 1.389552,1.32291 1.000815,1.06996 1.404292,1.32292 2.110044,1.32292 1.803746,0 2.986548,-0.95951 3.102483,-2.51679 0.04842,-0.65044 -0.06799,-0.75056 -1.21934,-1.04871 -1.615422,-0.41833 -1.912105,-0.70137 -1.514306,-1.44466 0.438383,-0.81913 2.508268,-2.92734 2.874118,-2.92734 0.170466,0 0.309939,-0.2527 0.309939,-0.56156 0,-0.45217 -0.07238,-0.50149 -0.371568,-0.2532 -0.209682,0.17403 -0.667213,0.23418 -1.050158,0.13806 -0.467558,-0.11735 -0.973449,0.0119 -1.626724,0.41566 -0.521475,0.32229 -1.003657,0.53046 -1.07152,0.4626 -0.06786,-0.0679 -0.150898,-0.76606 -0.184521,-1.55154 l -0.06113,-1.42815 0.926041,0.007 c 0.509323,0.004 1.559142,0.0886 2.332932,0.18809 l 1.40689,0.18084 0.4069,-0.97386 c 0.56319,-1.3479 0.341461,-2.74665 -0.801108,-5.05373 -1.047088,-2.11429 -1.100206,-2.26897 -0.692674,-2.01711 0.149429,0.0924 0.757587,1.13432 1.35146,2.31547 0.954876,1.89916 1.066221,2.31094 0.962634,3.56007 -0.07157,0.86305 -0.330946,1.7017 -0.666787,2.15595 -0.510636,0.69067 -0.530289,0.89513 -0.276855,2.88033 0.345376,2.70541 -0.21713,5.67649 -1.294887,6.83941 -0.413639,0.44633 -0.565134,0.78078 -0.381405,0.84203 0.167638,0.0559 0.431986,0.33925 0.587436,0.62971 0.695294,1.29917 -1.996366,2.10216 -3.78778,1.13 z m 2.825951,-0.77394 c 0.01572,-0.35935 -0.134781,-0.71606 -0.33447,-0.79269 -0.653198,-0.25066 -0.809038,0.11673 -0.398553,0.93957 0.445929,0.89389 0.6896,0.84506 0.733023,-0.14688 z m -14.618428,-8.95898 c -1.450824,-0.80528 -3.410094,-6.05338 -2.475534,-6.63097 0.123518,-0.0763 0.234767,0.21958 0.247221,0.65759 0.05393,1.8969 1.704951,5.35085 2.710272,5.66993 0.719796,0.22846 1.825313,-0.13251 2.125884,-0.69414 0.146802,-0.2743 0.384531,-0.49873 0.528287,-0.49873 0.539801,0 -0.612655,1.29489 -1.395266,1.56771 -0.993158,0.34621 -0.988122,0.34642 -1.740864,-0.0714 z m 3.284768,-2.14512 c 0.08109,-0.21132 0.661458,-0.80542 1.289704,-1.32022 1.162296,-0.95241 2.427602,-3.08648 2.122604,-3.57998 -0.324335,-0.52478 -2.109486,-0.26867 -3.510209,0.5036 -1.663061,0.9169 -1.881539,0.59382 -0.246429,-0.36442 1.334687,-0.78218 2.536226,-1.0703 3.477841,-0.83397 0.534805,0.13423 0.671192,0.33226 0.671192,0.97456 0,1.11928 -0.363469,1.73022 -2.072325,3.48329 -1.477674,1.51591 -2.012421,1.86692 -1.732378,1.13714 z m 6.804533,-3.57416 c -1.196078,-0.50325 -1.028525,-1.82125 0.371936,-2.92573 0.401103,-0.31633 0.729276,-0.82628 0.729276,-1.13323 0,-0.56182 0.330232,-0.79867 2.375209,-1.70351 1.256705,-0.55606 1.60714,-1.34861 1.351135,-3.05578 -0.149831,-0.99914 -0.263679,-1.18852 -0.631643,-1.05072 -0.387312,0.14504 -0.400391,0.10846 -0.09536,-0.26673 0.570757,-0.70205 0.123696,-1.0423 -0.765397,-0.58253 -0.428305,0.22148 -0.778735,0.29056 -0.778735,0.1535 0,-0.13706 0.337934,-0.39879 0.750964,-0.58161 l 0.750965,-0.33241 -0.81711,-0.69882 c -2.35988,-2.01826 -3.59218,-2.40449 -3.599286,-1.12811 -0.0069,1.23813 -0.342175,1.52903 -1.303396,1.13088 -0.454935,-0.18844 -1.048615,-0.62415 -1.319287,-0.96826 -0.270674,-0.3441 -0.676296,-0.62564 -0.901385,-0.62564 -0.35683,0 -0.363106,0.0889 -0.049,0.69437 0.551574,1.06316 0.249079,1.50141 -0.891596,1.29173 -0.525383,-0.0966 -1.310888,-0.39857 -1.74557,-0.67111 l -0.790327,-0.49551 1.222447,-0.54074 c 0.672346,-0.29742 2.159088,-0.67953 3.303871,-0.84914 1.361818,-0.20178 2.360732,-0.51332 2.889311,-0.90113 1.029004,-0.75496 2.958946,-1.34976 3.293626,-1.01508 0.13644,0.13644 0.304567,1.1261 0.373615,2.19924 0.06905,1.07314 0.238771,2.06439 0.377159,2.20278 0.159099,0.1591 0.783645,0.13255 1.698564,-0.0722 0.795819,-0.17809 1.611971,-0.26841 1.813671,-0.20071 0.2017,0.0677 -0.434197,0.27458 -1.413105,0.45973 -1.615181,0.30549 -1.755273,0.38251 -1.514375,0.83263 0.146,0.27281 0.470673,0.4791 0.721495,0.45844 1.018445,-0.0839 2.440443,0.0587 2.440779,0.24472 1.98e-4,0.10914 -0.671997,0.15664 -1.493769,0.10557 -1.255321,-0.078 -1.469303,-0.0282 -1.338792,0.31194 0.441661,1.15095 0.47607,2.29561 0.09405,3.12864 -0.223377,0.48709 -0.442814,1.17815 -0.48764,1.53569 -0.0641,0.51126 -0.356333,0.74815 -1.36861,1.1094 -2.729183,0.97395 -4.153086,2.43872 -3.249274,3.34254 0.346726,0.34672 0.690012,0.37136 2.144863,0.15394 0.95264,-0.14237 1.859365,-0.18019 2.014942,-0.084 0.155581,0.0961 -0.231825,0.24704 -0.860898,0.33531 -0.629076,0.0883 -1.50096,0.22166 -1.937523,0.29643 -0.436562,0.0748 -1.051171,0.0276 -1.365795,-0.10475 z m 3.35017,-14.43016 c 0,-1.31974 -0.0538,-1.45521 -0.577924,-1.45521 -0.317857,0 -1.097828,0.25168 -1.733267,0.55929 l -1.155345,0.5593 1.303972,0.60413 c 0.717185,0.33228 1.38512,0.73544 1.4843,0.89592 0.410366,0.66399 0.678264,0.20446 0.678264,-1.16343 z m -8.177948,11.0983 c -0.0537,-1.79778 2.174576,-4.89589 3.501896,-4.8689 0.461854,0.009 0.383947,0.11262 -0.395881,0.52456 -1.226415,0.64785 -2.010897,1.74558 -2.610514,3.65291 -0.391848,1.24643 -0.475438,1.36308 -0.495501,0.69143 z m -5.348747,-4.39491 c -0.476847,-0.86568 -0.657029,-5.92624 -0.229352,-6.44156 0.520611,-0.6273 0.928726,-0.47859 2.528483,0.92132 0.826776,0.72349 1.726673,1.38636 1.999771,1.47304 0.2731,0.0867 0.496543,0.26863 0.496543,0.40435 0,0.60847 -1.131797,-0.0522 -2.85408,-1.666 -1.149349,-1.07696 -1.467914,-1.25346 -1.785937,-0.98953 -0.512249,0.42513 -0.510476,3.34099 0.0032,5.27123 0.423394,1.59097 0.363952,1.97586 -0.158632,1.02715 z m 11.674612,0.0435 c 0,-0.14552 0.119062,-0.26458 0.264583,-0.26458 0.439632,0 0.296876,-0.74842 -0.198437,-1.04035 -0.403831,-0.238 -0.412287,-0.30681 -0.06615,-0.53826 0.574429,-0.38409 0.714806,-0.33935 0.876617,0.27942 0.112401,0.42982 0.273468,0.51198 0.72362,0.36911 0.423058,-0.13428 0.546846,-0.0872 0.459539,0.17471 -0.06573,0.19717 -0.347702,0.35849 -0.626616,0.35849 -0.278915,0 -0.592579,0.20836 -0.697031,0.46303 -0.203018,0.49497 -0.736129,0.63868 -0.736129,0.19843 z m -4.056944,-2.02847 c -0.30444,-0.30444 -0.19268,-0.61736 0.220486,-0.61736 0.218281,0 0.396875,0.17859 0.396875,0.39687 0,0.41317 -0.312923,0.52493 -0.617361,0.22049 z m 3.843073,-1.69554 c 0.05214,-0.15643 0.207918,-0.28442 0.346163,-0.28442 0.138244,0 0.294018,0.12799 0.346162,0.28442 0.05215,0.15644 -0.103627,0.28443 -0.346162,0.28443 -0.242536,0 -0.39831,-0.12799 -0.346163,-0.28443 z"
           style="fill:#a5bf64;stroke-width:0.26458332" />
        <path
           inkscape:connector-curvature="0"
           id="Outline"
           d="m 49.26789,200.46022 c -0.812435,-0.24484 -3.207795,-2.11792 -2.988681,-2.33704 0.07864,-0.0786 0.528144,0.22156 0.998906,0.66709 1.10189,1.04284 1.70049,1.33862 2.840576,1.40359 1.425772,0.0812 1.518332,0.0451 1.69588,-0.66232 0.09131,-0.3638 0.282811,-0.66146 0.425559,-0.66146 0.59795,0 0.195786,-0.75596 -0.571169,-1.07364 -0.646227,-0.26768 -1.201926,-0.28051 -2.502259,-0.0578 -1.836041,0.3145 -3.579609,-0.0253 -5.281278,-1.02933 -1.099308,-0.64861 -1.483104,-1.24423 -2.232493,-3.46462 -0.466225,-1.3814 -0.568848,-2.12718 -0.450499,-3.27387 l 0.153262,-1.48497 -1.023611,0.13729 c -0.580171,0.0778 -1.461662,0.48596 -2.034782,0.94214 -1.503237,1.1965 -2.274519,1.29998 -3.524429,0.47282 -1.271318,-0.84132 -1.851225,-1.89905 -2.039084,-3.71922 -0.230232,-2.23074 0.448041,-4.04159 2.331428,-6.22443 0.883557,-1.02404 1.723957,-1.8619 1.867558,-1.8619 0.1436,0 -0.44677,0.80367 -1.311934,1.78594 -1.978215,2.24597 -2.155798,2.59877 -2.348881,4.66645 -0.225053,2.41003 0.03822,3.44083 1.156081,4.52648 1.165484,1.13191 2.316332,1.23423 3.433103,0.30523 1.085935,-0.90334 1.825156,-1.24334 2.884677,-1.32678 l 0.938003,-0.0739 -0.171489,1.60671 c -0.137477,1.28805 -0.05454,1.94781 0.418182,3.32651 0.803372,2.34305 1.323292,2.99862 2.954913,3.72587 2.53587,1.13028 6.854924,0.69691 8.394098,-0.84226 0.444206,-0.44421 0.807646,-0.67943 0.807646,-0.52271 0,0.15671 -0.22892,0.51385 -0.508709,0.79364 -0.464857,0.46486 -0.470559,0.52488 -0.06615,0.69624 0.243409,0.10314 1.216469,0.27404 2.162355,0.37977 l 1.719792,0.19224 -1.534494,0.0376 c -0.916929,0.0224 -1.843495,-0.12223 -2.302288,-0.35948 -0.611804,-0.31637 -0.904803,-0.33461 -1.442164,-0.0898 l -0.674367,0.30726 0.793845,0.48276 c 0.929031,0.56498 0.993111,0.89078 0.264676,1.3457 -0.291042,0.18176 -0.529167,0.52721 -0.529167,0.76768 0,0.73377 -1.18991,0.95236 -2.702616,0.49647 z m 9.978658,-0.57432 c -0.548471,-0.30162 -1.439029,-1.2791 -1.449324,-1.59078 -0.0032,-0.0979 0.342143,0.16995 0.767514,0.59531 0.513114,0.51312 1.042122,0.7734 1.571884,0.7734 0.439169,0 0.872072,0.11906 0.962009,0.26459 0.221102,0.35774 -1.182846,0.32551 -1.852083,-0.0425 z m 2.711979,-0.11754 c 0.327422,-0.23851 0.595313,-0.59354 0.595313,-0.78895 0,-0.54348 -0.922383,-0.91704 -1.820691,-0.73738 -0.443121,0.0886 -1.098785,0.0876 -1.457034,-0.002 -0.73474,-0.18441 -2.800472,-2.22306 -2.80484,-2.76807 -0.0016,-0.19567 0.424696,0.16152 0.947253,0.79375 1.477664,1.78779 2.696613,2.09839 4.300165,1.09572 1.312476,-0.82067 2.214856,-4.68608 1.776449,-7.60958 -0.175101,-1.16766 -0.216304,-1.21997 -0.651097,-0.82649 -0.918861,0.83156 -0.86048,0.39741 0.08769,-0.6521 1.800821,-1.99329 1.9211,-3.43734 0.538933,-6.47031 -0.514393,-1.12875 -0.883126,-2.10442 -0.819407,-2.16814 0.06372,-0.0637 0.603647,0.85874 1.199841,2.0499 1.168037,2.33367 1.349589,3.60273 0.728099,5.08953 -0.195739,0.46827 -0.550424,1.01273 -0.788189,1.20991 -0.29111,0.24142 -0.359471,0.50066 -0.209309,0.79375 0.392462,0.76601 0.533011,3.46071 0.26674,5.1141 -0.275596,1.71129 -1.063517,3.52745 -1.618256,3.7301 -0.236281,0.0863 -0.15417,0.29993 0.27322,0.71081 0.551995,0.53066 0.5745,0.6425 0.232971,1.15777 -0.207929,0.31371 -0.601951,0.60217 -0.875607,0.64103 -0.430612,0.0611 -0.41746,0.0123 0.09776,-0.363 z m -15.414994,-10.536 c -0.81118,-1.06351 -1.990473,-4.1624 -1.960472,-5.15164 0.0236,-0.77819 0.0011,-0.82927 0.768466,1.7424 0.741821,2.48598 1.854812,4.05113 2.880791,4.05113 0.416025,0 1.069519,-0.24629 1.45221,-0.54732 0.533745,-0.41984 0.658051,-0.44894 0.533719,-0.12494 -0.229421,0.59786 -0.972384,0.93684 -2.05334,0.93684 -0.748073,0 -1.065206,-0.1773 -1.621374,-0.90647 z m 5.600717,-2.85923 c 3.105862,-3.35022 2.302833,-4.91439 -1.533699,-2.98741 -0.721377,0.36233 -1.237851,0.53945 -1.14772,0.39362 0.295506,-0.47814 2.737995,-1.57801 3.504297,-1.57801 2.437635,0 1.456971,3.176 -1.65808,5.36988 -0.470252,0.33119 -0.129863,-0.15709 0.835202,-1.19808 z m -15.894747,0.61469 c -0.251451,-0.27785 -0.516846,-0.88375 -0.589767,-1.34644 -0.170208,-1.07999 0.425078,-1.98298 3.575986,-5.42442 3.149969,-3.44042 3.623874,-4.38827 3.550751,-7.10178 -0.06689,-2.48224 -0.625561,-3.69914 -1.758967,-3.8314 -1.368234,-0.15967 -1.542241,0.26669 -1.340146,3.28366 0.166888,2.4914 0.135382,2.78723 -0.386827,3.63218 -0.567976,0.91901 -1.88211,1.9945 -1.88211,1.54033 0,-0.13214 0.295178,-0.43367 0.655952,-0.67005 1.233523,-0.80824 1.510331,-1.77135 1.30664,-4.54625 -0.161217,-2.19628 -0.125599,-2.5671 0.290766,-3.02718 0.514348,-0.56835 1.461213,-0.67895 2.240763,-0.26175 0.715348,0.38284 1.157559,1.97385 1.177193,4.23536 0.02214,2.54988 -0.581422,3.82143 -2.971298,6.25981 -1.566486,1.59828 -2.384115,2.6303 -3.731187,4.70952 -0.44503,0.68691 -0.190465,2.52442 0.349728,2.52442 0.194102,0 1.033116,-0.3114 1.864475,-0.69201 1.450193,-0.66392 1.553791,-0.67543 2.551687,-0.28345 l 1.040124,0.40857 0.950762,-1.89936 c 1.512334,-3.02124 4.502627,-7.05875 5.227911,-7.05875 0.146507,0 -0.157967,0.44649 -0.676611,0.99219 -2.077382,2.18577 -5.243177,7.29605 -5.253873,8.4809 -0.0025,0.27956 -0.07735,0.33901 -0.198438,0.15767 -0.706209,-1.05765 -2.755871,-1.1787 -4.030844,-0.23805 -1.076502,0.79422 -1.364582,0.81716 -1.96267,0.15628 z m 12.081174,-2.2068 c -0.31402,-0.39185 -1.201027,-3.38328 -1.048441,-3.53586 0.05805,-0.0581 0.32412,0.63935 0.591266,1.54979 0.267146,0.91044 0.598463,1.80417 0.736259,1.98607 0.137796,0.1819 0.191007,0.33073 0.118247,0.33073 -0.07276,0 -0.251559,-0.14883 -0.397331,-0.33073 z m 8.779905,-0.66551 c -0.451178,-0.30894 -0.590864,-0.93907 -0.351133,-1.584 0.240159,-0.64607 2.466316,-2.18873 3.134212,-2.1719 0.226171,0.006 0.05403,0.16639 -0.38253,0.3571 -1.298099,0.56708 -2.513541,1.73553 -2.513541,2.41636 0,0.81826 0.60512,0.98467 2.972212,0.81735 1.576179,-0.11141 1.708058,-0.0941 0.731954,0.0962 -1.492017,0.29089 -3.218579,0.32399 -3.591174,0.0689 z m -4.593002,-3.10655 c -0.123063,-1.83029 2.587686,-5.27968 3.770341,-4.79771 0.172038,0.0701 0.108578,0.13687 -0.14102,0.14836 -0.710599,0.0327 -2.190123,1.47995 -2.645259,2.58754 -0.871858,2.12171 -0.966676,2.32037 -0.984062,2.06181 z m -2.134574,-0.81861 c 0,-0.15627 0.47553,-0.94819 1.056735,-1.75984 1.023192,-1.42887 2.456919,-2.58089 3.207827,-2.57755 0.201107,9e-4 0.0085,0.1874 -0.428103,0.41445 -1.108795,0.57668 -1.90154,1.35495 -2.941368,2.88768 -0.4923,0.72566 -0.895091,1.19153 -0.895091,1.03526 z m 11.1125,-1.60199 c 0,-0.16004 0.191098,-0.44958 0.424664,-0.64342 0.330169,-0.27402 0.399185,-0.70469 0.310161,-1.93544 -0.06406,-0.88567 -0.25186,-1.62878 -0.426313,-1.68693 -0.171495,-0.0572 -0.244509,-0.21283 -0.162253,-0.34592 0.299842,-0.48515 -0.152749,-0.75559 -0.832204,-0.49726 -0.390898,0.14862 -0.604875,0.15281 -0.516689,0.0101 0.211148,-0.34164 2.428018,-1.03549 3.848468,-1.20451 1.511887,-0.1799 1.107119,0.005 -0.85924,0.3932 -1.368719,0.26998 -1.494126,0.34961 -1.254824,0.79675 0.195631,0.36554 0.632331,0.52244 1.652987,0.59389 l 1.387118,0.0971 -1.394103,0.0489 c -1.38308,0.0486 -1.3926,0.0547 -1.203835,0.77655 0.376044,1.43803 0.230859,2.68311 -0.384638,3.2986 -0.324115,0.32412 -0.589299,0.45836 -0.589299,0.29832 z m -14.433292,-2.59624 c -0.255581,-0.61169 -0.368583,-1.73618 -0.339,-3.37343 l 0.04437,-2.4559 0.174105,2.64583 c 0.09576,1.45521 0.310967,2.97326 0.478243,3.37344 0.167277,0.40018 0.24148,0.72761 0.164896,0.72761 -0.07658,0 -0.311762,-0.4129 -0.522618,-0.91755 z m 11.922418,0.65728 c -0.0914,-0.1479 -0.0401,-0.2689 0.114008,-0.2689 0.15411,0 0.2802,-0.23813 0.2802,-0.52917 0,-0.29104 -0.119063,-0.52916 -0.264584,-0.52916 -0.145521,0 -0.264583,-0.11907 -0.264583,-0.26459 0,-0.47407 0.657677,-0.27865 1.021202,0.30345 0.286435,0.45866 0.399798,0.49686 0.588758,0.19844 0.185566,-0.29307 0.234858,-0.27003 0.238072,0.11125 0.003,0.36105 -0.127791,0.43901 -0.525115,0.3129 -0.369518,-0.11728 -0.529167,-0.0475 -0.529167,0.23114 0,0.50282 -0.438042,0.79182 -0.658791,0.43464 z m -4.210453,-2.07965 c -0.09156,-0.14814 -0.03754,-0.34903 0.120031,-0.44642 0.406792,-0.25141 0.669256,0.093 0.329666,0.43255 -0.190019,0.19002 -0.338011,0.19458 -0.449697,0.0139 z m -3.86928,-1.8061 c -0.990411,-0.66894 -3.435941,-2.99773 -3.148003,-2.99773 0.138947,0 0.690443,0.40122 1.225545,0.89161 l 0.972914,0.8916 1.123018,-0.59711 c 0.637247,-0.33883 2.131733,-0.7439 3.454972,-0.93645 1.671391,-0.24321 2.536153,-0.50756 3.052837,-0.93322 0.857834,-0.7067 2.453399,-1.27617 2.994194,-1.06865 0.289663,0.11116 0.385964,0.63209 0.385964,2.08787 0,1.18098 0.129373,2.08238 0.330729,2.30434 0.181901,0.20052 -0.145521,0.0102 -0.727604,-0.42287 -2.047288,-1.52329 -2.513092,-1.72575 -3.970367,-1.72575 -2.115635,0 -3.812223,0.30845 -5.29005,0.96176 l -1.322917,0.58484 0.992188,0.59465 c 0.545703,0.32705 0.992187,0.64242 0.992187,0.7008 0,0.22586 -0.438907,0.0876 -1.065607,-0.33569 z m 9.596073,-4.36269 c -0.25336,-0.25335 -1.705332,0.17337 -2.641214,0.77624 -0.643218,0.41434 -0.569955,0.84803 0.145635,0.86209 0.246073,0.005 0.923655,0.33874 1.505738,0.74201 l 1.058334,0.73323 0.0805,-1.44204 c 0.04427,-0.79312 -0.02278,-1.5453 -0.148992,-1.67153 z m -1.915882,4.53996 c 0,-0.14552 0.178593,-0.26459 0.396875,-0.26459 0.218281,0 0.396875,0.11907 0.396875,0.26459 0,0.14552 -0.178594,0.26458 -0.396875,0.26458 -0.218282,0 -0.396875,-0.11906 -0.396875,-0.26458 z"
           style="fill:#2b2920;stroke-width:0.26458332" />
      </g>
    </g>
  </g>
</svg>
