<?xml version="1.0" encoding="UTF-8" standalone="no"?>
<!-- Created with Inkscape (http://www.inkscape.org/) -->

<svg
   xmlns:dc="http://purl.org/dc/elements/1.1/"
   xmlns:cc="http://creativecommons.org/ns#"
   xmlns:rdf="http://www.w3.org/1999/02/22-rdf-syntax-ns#"
   xmlns:svg="http://www.w3.org/2000/svg"
   xmlns="http://www.w3.org/2000/svg"
   xmlns:sodipodi="http://sodipodi.sourceforge.net/DTD/sodipodi-0.dtd"
   xmlns:inkscape="http://www.inkscape.org/namespaces/inkscape"
   width="44.970604mm"
   height="29.721491mm"
   viewBox="0 0 44.970604 29.721491"
   version="1.1"
   id="svg1061"
   inkscape:version="0.92.4 (5da689c313, 2019-01-14)"
   sodipodi:docname="Faceboi.svg">
  <defs
     id="defs1055" />
  <sodipodi:namedview
     id="base"
     pagecolor="#ffffff"
     bordercolor="#666666"
     borderopacity="1.0"
     inkscape:pageopacity="0.0"
     inkscape:pageshadow="2"
     inkscape:zoom="2.8"
     inkscape:cx="445.67161"
     inkscape:cy="-68.65213"
     inkscape:document-units="mm"
     inkscape:current-layer="layer1"
     showgrid="false"
     inkscape:window-width="3840"
     inkscape:window-height="2097"
     inkscape:window-x="1912"
     inkscape:window-y="-8"
     inkscape:window-maximized="1" />
  <metadata
     id="metadata1058">
    <rdf:RDF>
      <cc:Work
         rdf:about="">
        <dc:format>image/svg+xml</dc:format>
        <dc:type
           rdf:resource="http://purl.org/dc/dcmitype/StillImage" />
        <dc:title></dc:title>
      </cc:Work>
    </rdf:RDF>
  </metadata>
  <g
     inkscape:label="Layer 1"
     inkscape:groupmode="layer"
     id="layer1"
     transform="translate(-20.790942,-169.69051)">
    <g
       id="g1074"
       transform="translate(-61.232143,-17.103423)">
      <path
         style="fill:#515151;stroke-width:0.26458332"
         d="m 100.48498,216.36713 c -3.187484,-0.31883 -5.319735,-1.13732 -7.709656,-2.95944 -2.795056,-2.131 -4.294465,-5.60223 -4.525996,-10.47797 l -0.141415,-2.97804 -2.344302,-1.23605 c -1.289366,-0.67982 -2.731245,-1.58028 -3.204176,-2.00102 -0.964858,-0.85837 -0.675534,-0.74852 1.256793,0.47721 0.727604,0.46154 2.053131,1.20714 2.945616,1.65688 l 1.6227,0.81772 0.12685,-1.64184 c 0.06977,-0.903 0.08295,-1.72095 0.0293,-1.81766 -0.05365,-0.0967 -1.17041,-0.62052 -2.481688,-1.16404 -1.311278,-0.54352 -2.330283,-1.04207 -2.264456,-1.1079 0.158496,-0.15849 2.678012,0.67297 3.903477,1.28818 l 0.971386,0.48766 0.263534,-1.25153 c 0.144944,-0.68835 0.466866,-2.28635 0.715383,-3.55111 0.462398,-2.35326 1.125637,-3.8126 1.860991,-4.09478 0.957275,-0.36734 4.597397,4.56582 4.606531,6.24286 0.0023,0.41754 -0.407679,-0.18419 -1.171684,-1.7198 -1.214219,-2.4405 -2.493161,-4.08183 -3.180614,-4.08183 -0.677234,0 -1.173812,1.12046 -1.824841,4.1175 -1.092628,5.02996 -1.223674,4.34354 1.099328,5.75826 2.374698,1.44619 2.260639,1.62949 -0.19171,0.30809 -0.935629,-0.50415 -1.76165,-0.85613 -1.835603,-0.78218 -0.263984,0.26399 -0.3628,3.29833 -0.107413,3.29833 0.140745,0 0.542009,0.25668 0.891697,0.57042 0.539762,0.48426 0.555868,0.53967 0.106629,0.36685 -1.480115,-0.56937 -1.455416,-0.59003 -1.452296,1.21468 0.0045,2.60462 0.249072,3.73382 0.761606,3.51643 1.535492,-0.65129 4.45051,-1.69527 4.907463,-1.75755 0.472983,-0.0645 0.541546,0.0597 0.514364,0.93116 -0.03225,1.03405 -1.051387,2.7671 -2.753868,4.68301 -1.10149,1.23957 -0.731042,0.53047 0.856349,-1.63918 1.207161,-1.64996 1.964798,-3.30789 1.653765,-3.61893 -0.143174,-0.14317 -2.093318,0.49485 -4.175161,1.36598 -1.430135,0.59843 -1.423988,0.55205 -0.426567,3.2179 1.291543,3.45196 4.602265,5.98481 9.068537,6.93784 2.147747,0.45829 9.278097,0.3484 11.154147,-0.1719 2.04415,-0.56692 3.0412,-1.11835 3.07405,-1.70013 0.0567,-1.00373 -0.0539,-1.33421 -0.89434,-2.67179 -1.30252,-2.0731 -2.312,-4.12626 -2.312,-4.70233 0,-0.45712 0.13111,-0.50825 0.99218,-0.38695 1.0239,0.14423 5.07015,2.24359 6.03633,3.13188 0.6795,0.62473 0.81467,0.62686 0.97458,0.0154 0.0913,-0.34922 -0.53577,-1.14008 -2.2181,-2.79738 -3.14779,-3.10097 -3.09752,-3.73902 0.23493,-2.98182 0.98191,0.2231 2.00953,0.49292 2.28361,0.59958 0.46912,0.18257 0.48697,0.0879 0.30456,-1.6154 -0.3106,-2.9004 -0.26587,-2.85583 -2.11272,-2.10521 -2.06446,0.83906 -2.18533,0.66656 -0.16746,-0.239 l 1.57641,-0.70745 -0.40344,-0.9848 c -0.77417,-1.88979 -0.88078,-1.89515 -3.25887,-0.16391 -3.10137,2.2578 -3.39362,2.44684 -2.99245,1.93571 0.17794,-0.22672 1.30904,-1.10999 2.51355,-1.96285 1.2045,-0.85285 2.28944,-1.63454 2.41096,-1.7371 0.12153,-0.10256 0.0513,-0.52757 -0.15612,-0.94447 -0.20739,-0.41692 -0.4,-1.41286 -0.42803,-2.21323 -0.0659,-1.88316 -0.22629,-2.7099 -0.88407,-4.5585 -0.38943,-1.09443 -0.63688,-1.46123 -0.89013,-1.3195 -0.88127,0.49318 -5.93239,5.74075 -5.93239,6.16311 0,0.80872 -0.49769,1.83156 -0.89119,1.83156 -0.49267,0 -0.64647,-0.45109 -0.85811,-2.51687 -0.0967,-0.94405 -0.26138,-1.71646 -0.36591,-1.71646 -0.10453,0 -0.26836,0.8426 -0.36408,1.87245 -0.25677,2.76276 -1.12261,4.10197 -1.98231,3.0661 -0.16119,-0.19422 -0.4734,-1.29555 -0.69381,-2.4474 -0.46963,-2.45426 -0.47209,-2.49115 -0.16566,-2.49115 0.12936,0 0.22131,0.14882 0.20435,0.33073 -0.017,0.1819 0.13467,1.19539 0.33694,2.25221 0.42181,2.2038 0.86309,2.80631 1.3666,1.86591 0.46064,-0.8603 0.75647,-4.26353 0.39213,-4.51095 -0.15743,-0.10691 -0.94352,-0.19621 -1.74685,-0.19844 l -1.46062,-0.004 -0.61743,1.98906 c -0.70706,2.27777 -1.327893,3.20701 -1.976385,2.95816 -0.354066,-0.13587 -0.438086,-0.55028 -0.438086,-2.16079 0,-1.09597 -0.07992,-1.99268 -0.177604,-1.99268 -0.09768,0 -0.412733,0.20836 -0.700114,0.46302 -0.410729,0.36397 -0.495689,0.37812 -0.397139,0.0661 0.06895,-0.21828 0.592365,-0.66903 1.163135,-1.00167 0.961229,-0.56019 1.291433,-0.59868 4.477353,-0.52196 2.90639,0.07 3.60364,0.17056 4.49791,0.64878 l 1.05834,0.56595 2.54262,-2.49138 c 1.39845,-1.37026 2.72935,-2.49139 2.95755,-2.49139 0.63432,0 1.5378,2.72036 1.75748,5.29167 0.15941,1.86586 0.48557,3.10562 0.96457,3.66642 0.0444,0.052 0.74973,-0.2882 1.56736,-0.756 0.81763,-0.46781 1.54449,-0.79267 1.61524,-0.72192 0.0708,0.0708 -0.54178,0.507 -1.36117,0.96944 -0.83683,0.47227 -1.43466,0.97918 -1.36399,1.15653 0.80917,2.03063 1.0617,2.5647 1.21272,2.5647 0.0977,0 1.72189,-0.5226 3.6093,-1.16134 4.0011,-1.35405 5.30117,-1.67624 5.03664,-1.24821 -0.0996,0.16109 -0.40073,0.29288 -0.66927,0.29288 -0.26854,0 -2.17627,0.54354 -4.23941,1.20787 -3.16626,1.01954 -3.72367,1.27738 -3.57491,1.65365 0.0969,0.24517 0.2784,1.51306 0.40327,2.81752 0.25799,2.69515 -0.14892,5.52485 -1.06727,7.42191 -0.70523,1.45681 -3.22242,3.84493 -5.0047,4.74808 -2.58109,1.30794 -7.77374,1.92897 -12.32353,1.47389 z m 15.67736,-4.59419 c 0.76354,-0.80734 1.38826,-1.52056 1.38826,-1.58494 0,-0.43444 -6.1824,-3.88188 -6.96314,-3.88281 -0.76803,-7.9e-4 -0.33109,1.04449 2.04559,4.89423 0.66425,1.07594 0.94793,1.8167 0.88036,2.29878 l -0.0997,0.71129 0.68018,-0.48433 c 0.3741,-0.26639 1.3049,-1.14489 2.06845,-1.95222 z m 2.34798,-5.86148 c 0.18482,-1.57253 0.34023,-1.43662 -2.28264,-1.99644 -0.80036,-0.17083 -1.75209,-0.2686 -2.11494,-0.21727 -0.60962,0.0862 -0.48899,0.26423 1.5875,2.34229 2.5011,2.50302 2.50079,2.50303 2.81008,-0.12858 z m -18.04591,-12.76773 c 0.37236,-1.10746 0.64756,-2.04301 0.61158,-2.079 -0.036,-0.036 -0.48101,0.0196 -0.98894,0.12345 -1.021624,0.20895 -1.231824,0.6923 -1.29056,2.96766 -0.06051,2.3441 0.693287,1.88669 1.66792,-1.01211 z m 6.83796,0.79808 c 0.0781,-0.54926 0.22284,-1.19895 0.32173,-1.44378 0.13199,-0.32675 -0.047,-0.56241 -0.67295,-0.88611 l -0.85276,-0.44098 0.18465,1.41528 c 0.3656,2.80223 0.7425,3.30346 1.01933,1.35559 z m -10.382956,20.23417 c 0.0035,-0.47294 0.113254,-1.32083 0.243961,-1.88419 0.478413,-2.06202 -0.11163,-2.22705 -2.401848,-0.67179 -0.876355,0.59512 -1.643761,1.03165 -1.705344,0.97007 -0.118524,-0.11853 2.233329,-1.77032 3.292474,-2.31243 0.509139,-0.2606 0.698305,-0.24838 1.01205,0.0654 0.327959,0.32796 0.338612,0.70907 0.07099,2.53937 -0.330047,2.25721 -0.522927,2.74427 -0.512279,1.29361 z m 4.809106,-6.07219 c -0.17463,-0.17462 -0.30995,-0.56158 -0.30073,-0.85989 0.0157,-0.50817 0.032,-0.50446 0.25823,0.0588 0.30116,0.74983 1.02362,1.05385 1.33515,0.56185 0.49637,-0.7839 0.25464,-2.25672 -0.55348,-3.37229 l -0.79541,-1.09803 0.72927,-0.0341 c 1.12469,-0.0526 3.36149,0.0747 3.49088,0.1988 0.0637,0.0611 -0.40626,0.64296 -1.04432,1.29309 -1.04904,1.0689 -1.13513,1.25202 -0.89924,1.91269 0.19994,0.55997 0.42923,0.72811 0.98175,0.7199 0.39648,-0.006 0.67963,0.11318 0.62923,0.26459 -0.1646,0.49447 -0.93002,0.45139 -1.4638,-0.0824 -0.52029,-0.52029 -0.52319,-0.51979 -0.68277,0.11602 -0.1763,0.70245 -1.12296,0.88284 -1.68476,0.32103 z m 2.31617,-4.39369 c -0.7531,-0.0446 -1.42862,-0.0217 -1.50117,0.0509 -0.0725,0.0725 0.13385,0.50511 0.45866,0.96126 l 0.59056,0.82936 0.9106,-0.88027 0.91061,-0.88028 z m 4.62398,-2.80851 c -0.24714,-0.98467 -0.0334,-1.60842 0.55118,-1.60842 0.42913,0 0.54047,0.20628 0.6069,1.12448 0.071,0.98176 0.0129,1.12448 -0.45798,1.12448 -0.34993,0 -0.59579,-0.22494 -0.7001,-0.64054 z m 0.596,-0.73199 c -0.0845,-0.21107 -0.14715,-0.14837 -0.15985,0.15985 -0.0115,0.27892 0.051,0.43519 0.13897,0.34727 0.0879,-0.0879 0.0973,-0.31612 0.0209,-0.50712 z m -12.707435,0.62409 c -0.568288,-0.62795 -0.569918,-1.86334 -0.0027,-2.08098 0.590515,-0.2266 1.152364,0.59707 1.152364,1.68936 0,0.99287 -0.462814,1.15053 -1.149617,0.39162 z"
         id="path1076"
         inkscape:connector-curvature="0" />
    </g>
  </g>
</svg>
