<?xml version="1.0" encoding="UTF-8" standalone="no"?>
<!-- Created with Inkscape (http://www.inkscape.org/) -->

<svg
   xmlns:dc="http://purl.org/dc/elements/1.1/"
   xmlns:cc="http://creativecommons.org/ns#"
   xmlns:rdf="http://www.w3.org/1999/02/22-rdf-syntax-ns#"
   xmlns:svg="http://www.w3.org/2000/svg"
   xmlns="http://www.w3.org/2000/svg"
   xmlns:sodipodi="http://sodipodi.sourceforge.net/DTD/sodipodi-0.dtd"
   xmlns:inkscape="http://www.inkscape.org/namespaces/inkscape"
   width="39.022167mm"
   height="44.369247mm"
   viewBox="0 0 39.022167 44.369247"
   version="1.1"
   id="svg999"
   inkscape:version="0.92.4 (5da689c313, 2019-01-14)"
   sodipodi:docname="WIDE.svg">
  <defs
     id="defs993" />
  <sodipodi:namedview
     id="base"
     pagecolor="#ffffff"
     bordercolor="#666666"
     borderopacity="1.0"
     inkscape:pageopacity="0.0"
     inkscape:pageshadow="2"
     inkscape:zoom="2.8"
     inkscape:cx="248.982"
     inkscape:cy="117.63878"
     inkscape:document-units="mm"
     inkscape:current-layer="g1012"
     showgrid="false"
     inkscape:window-width="3840"
     inkscape:window-height="2097"
     inkscape:window-x="1912"
     inkscape:window-y="-8"
     inkscape:window-maximized="1" />
  <metadata
     id="metadata996">
    <rdf:RDF>
      <cc:Work
         rdf:about="">
        <dc:format>image/svg+xml</dc:format>
        <dc:type
           rdf:resource="http://purl.org/dc/dcmitype/StillImage" />
        <dc:title></dc:title>
      </cc:Work>
    </rdf:RDF>
  </metadata>
  <g
     inkscape:label="Layer 1"
     inkscape:groupmode="layer"
     id="layer1"
     transform="translate(-48.179357,-189.52956)">
    <g
       id="g1012"
       transform="translate(-67.374256,26.741816)">
      <path
         style="fill:#dfd2ac;stroke-width:0.26458335"
         d="m 122.35306,206.76209 c -0.72317,-0.50654 -0.73119,-0.78407 -0.0589,-2.03848 0.29105,-0.54302 0.52917,-1.13744 0.52917,-1.32093 0,-0.18349 -0.54774,-0.66446 -1.21721,-1.06883 -0.73938,-0.4466 -1.33341,-1.04308 -1.51322,-1.51943 -0.33953,-0.89954 -0.70915,-1.03246 -0.70915,-0.25504 0,1.18655 -0.63313,0.35078 -2.25486,-2.97656 -1.44932,-2.97359 -1.70908,-3.72082 -1.71129,-4.92275 -0.005,-2.66329 0.99851,-5.52521 2.80875,-8.01114 1.19635,-1.6429 1.16571,-1.9279 -0.18408,-1.71206 l -1.07689,0.1722 0.48158,-0.84299 c 0.26487,-0.46364 1.46384,-1.62024 2.66439,-2.57023 1.60499,-1.27001 2.18281,-1.88895 2.18281,-2.33811 0,-0.68132 -0.54755,-0.79196 -1.71768,-0.34708 -0.39114,0.14871 -0.62818,0.1576 -0.54336,0.0204 0.0827,-0.13388 0.51467,-0.32342 0.95983,-0.4212 0.57071,-0.12535 0.76487,-0.29377 0.65842,-0.57116 -0.083,-0.21637 -0.15096,-0.51624 -0.15096,-0.66638 0,-0.17134 -0.46795,-0.21445 -1.25677,-0.11579 -0.85641,0.10712 -1.0882,0.0805 -0.7276,-0.0837 0.29104,-0.13247 0.79706,-0.24922 1.12448,-0.25945 0.50382,-0.0157 0.59531,-0.16517 0.59531,-0.97236 0,-0.52457 0.30016,-1.55135 0.66701,-2.28175 0.4209,-0.838 0.79943,-2.2754 1.0259,-3.89569 0.19738,-1.41223 0.60491,-3.12388 0.90561,-3.80366 0.83103,-1.87868 1.38541,-1.73049 3.90392,1.04361 l 2.06956,2.27957 1.3002,-0.15399 c 1.83751,-0.21762 2.85995,-0.71204 2.67534,-1.29371 -0.20628,-0.64992 0.24017,-0.58028 1.14141,0.17806 0.62629,0.52699 1.17971,0.67733 3.0529,0.82932 l 2.28795,0.18564 1.98581,-1.85453 c 1.0922,-1.01998 2.22827,-1.91792 2.52461,-1.99542 1.06434,-0.27833 1.57397,0.55617 1.98458,3.24965 0.87278,5.72517 1.16688,6.59993 2.23278,6.64096 l 0.68513,0.0264 -0.66146,0.18291 c -0.40618,0.11232 -0.69409,0.40847 -0.74601,0.76738 -0.0801,0.5537 0.0104,0.58468 1.7198,0.58852 0.99238,0.002 1.94192,0.0915 2.11009,0.19843 0.16816,0.10691 -0.66527,0.15446 -1.85208,0.10567 l -2.15784,-0.0887 -0.47685,0.81441 c -0.26227,0.44794 -0.70876,0.93853 -0.99219,1.09022 -0.28344,0.15169 -0.51534,0.37474 -0.51534,0.49567 0,0.12093 1.18615,1.4261 2.63589,2.90037 2.36891,2.409 2.78297,2.98205 4.08805,5.6578 0.79869,1.63752 1.52557,3.24519 1.61528,3.57261 0.15027,0.54845 0.076,0.59532 -0.94308,0.59532 -1.10575,0 -1.10613,2.6e-4 -0.93983,0.85989 0.0915,0.47295 0.23919,2.00406 0.3282,3.40248 0.24069,3.78144 -0.15647,4.76299 -3.14047,7.76145 l -2.3551,2.36653 0.45131,1.00083 c 0.37876,0.83996 0.39467,1.06906 0.099,1.42535 -0.41344,0.49817 -2.21442,0.41135 -4.35277,-0.20984 -1.08371,-0.31482 -2.06956,-0.33922 -5.45228,-0.13496 l -4.12937,0.24935 -1.8444,-0.80951 c -1.01443,-0.44524 -2.33662,-0.88823 -2.93822,-0.98442 -1.00637,-0.16093 -1.15178,-0.10601 -1.81908,0.68703 -1.2589,1.49611 -3.76472,2.07682 -5.05674,1.17186 z"
         id="path1020"
         inkscape:connector-curvature="0" />
      <path
         style="fill:#b2b1ad;stroke-width:0.26458335"
         d="m 122.69107,206.8578 c -1.08956,-0.61785 -1.08036,-1.28263 0.0381,-2.75152 0.34286,-0.4503 0.62339,-0.87556 0.62339,-0.94502 0,-0.0695 -0.58489,-0.39064 -1.29975,-0.71371 -1.26544,-0.57191 -2.30579,-1.67017 -2.02006,-2.1325 0.078,-0.12616 -0.0361,-0.29766 -0.25359,-0.3811 -0.26569,-0.10195 -0.39535,0.014 -0.39535,0.35354 0,1.07134 -0.51899,0.73878 -1.30652,-0.83721 -0.45146,-0.90344 -0.89317,-2.09505 -0.9816,-2.64801 -0.0884,-0.55297 -0.31058,-1.00539 -0.49368,-1.00539 -0.52305,0 -1.18695,-1.67997 -1.18695,-3.00353 0,-3.02935 1.41169,-6.41394 3.90564,-9.36394 l 1.39649,-1.65185 -1.3943,0.5599 c -2.2335,0.89689 -2.42818,0.92615 -2.10159,0.3159 0.45655,-0.85306 2.45365,-2.72976 4.08074,-3.83471 1.58949,-1.07943 1.66037,-1.17797 1.27968,-1.77917 -0.16886,-0.26667 -0.55256,-0.32532 -1.38501,-0.2117 l -1.15144,0.15716 0.92604,-0.34108 c 0.50932,-0.18758 0.91413,-0.47927 0.89958,-0.64819 -0.0145,-0.16892 -0.0443,-0.44152 -0.0661,-0.60579 -0.0264,-0.19912 -0.50268,-0.25246 -1.42875,-0.16003 l -1.38906,0.13864 1.25677,-0.28119 c 1.23519,-0.27636 1.25677,-0.29883 1.25677,-1.30832 0,-0.98892 0.49502,-2.2867 1.18914,-3.11752 0.18236,-0.21828 0.39715,-1.4089 0.4773,-2.64583 0.18231,-2.81349 0.80278,-4.93537 1.5087,-5.15942 0.83545,-0.26516 0.94091,-0.16997 4.4282,3.997 0.43565,0.52056 0.5844,0.53952 2.25239,0.28699 0.98227,-0.14871 1.78594,-0.36976 1.78594,-0.49122 0,-0.12147 0.19133,-0.22085 0.42518,-0.22085 0.25607,0 0.36856,-0.14757 0.28282,-0.37101 -0.26825,-0.69904 0.15685,-0.66916 1.24546,0.0875 0.88344,0.61408 1.46853,0.78605 3.09665,0.91016 l 2.00739,0.15301 2.04051,-1.9499 c 2.24555,-2.14584 2.82727,-2.43543 3.57935,-1.78185 0.51665,0.44898 1.08097,2.99468 1.08097,4.87633 0,0.52519 0.12604,1.03279 0.28008,1.12799 0.15603,0.0964 0.20891,0.4971 0.11939,0.90467 -0.2143,0.97569 0.75352,2.65109 1.5449,2.6744 0.56509,0.0166 0.56491,0.0185 -0.0261,0.25606 -0.33754,0.13568 -0.59531,0.46709 -0.59531,0.76539 0,0.46831 0.21072,0.53613 1.91822,0.61741 l 1.91823,0.0913 -2.0325,0.0526 c -1.93267,0.05 -2.06041,0.0918 -2.60055,0.85032 -0.31242,0.43876 -0.92271,0.98115 -1.3562,1.20532 l -0.78816,0.40757 1.00745,0.67307 c 2.52994,1.69021 5.25546,5.02562 6.79956,8.32109 0.64061,1.36721 1.24949,2.76918 1.35308,3.1155 0.18416,0.61573 0.16135,0.62561 -1.03103,0.44681 -1.42849,-0.21422 -1.45897,-0.13008 -0.78846,2.1764 0.58383,2.0083 0.38455,5.27464 -0.42706,6.99973 -0.3252,0.69122 -0.73664,1.25677 -0.91431,1.25677 -0.17766,0 -0.48907,0.31026 -0.69202,0.68947 -0.20295,0.37921 -0.99697,1.26341 -1.7645,1.96489 -0.76753,0.70148 -1.3955,1.3936 -1.3955,1.53804 0,0.14445 0.20343,0.6171 0.45208,1.05034 0.37983,0.66182 0.3958,0.85552 0.0999,1.21206 -0.51635,0.62217 -2.35754,0.53167 -4.02478,-0.19781 -1.32403,-0.57932 -1.57691,-0.60428 -3.67094,-0.36233 -2.90213,0.33532 -6.83007,-0.0771 -9.77197,-1.026 l -2.19602,-0.70833 -0.6757,0.86338 c -1.17582,1.50243 -3.65621,2.27358 -4.9511,1.53929 z m 1.05833,-0.74217 c 0.0924,-0.29104 0.27899,-0.52917 0.41471,-0.52917 0.34278,0 0.30823,0.36186 -0.0707,0.74084 -0.58013,0.58013 0.90338,0.36054 1.98409,-0.29368 0.99993,-0.60533 1.00198,-0.61011 0.39687,-0.92618 -0.90914,-0.47487 -3.65868,-0.2912 -4.0104,0.2679 -0.42941,0.68259 0.0475,0.92561 0.51282,0.26131 0.22319,-0.31865 0.52621,-0.57935 0.67339,-0.57935 0.14718,0 0.0133,0.35718 -0.2976,0.79375 -0.44934,0.63103 -0.4838,0.79375 -0.16814,0.79375 0.21838,0 0.47264,-0.23813 0.56501,-0.52917 z m 21.69584,0.26458 c -0.22896,-0.37046 0.2246,-0.33102 0.60854,0.0529 0.24694,0.24694 0.3175,0.16504 0.3175,-0.36857 0,-1.00137 -1.2635,-1.36369 -2.24719,-0.6444 -0.47182,0.345 -0.45803,0.38354 0.28016,0.78315 0.90213,0.48836 1.27236,0.55128 1.04099,0.1769 z m -0.10617,-4.04863 c 0.94134,-1.12746 0.98901,-3.50464 0.0976,-4.86517 -0.39468,-0.60236 -0.46709,-0.62188 -0.88935,-0.23974 -0.25283,0.2288 -0.81484,0.48704 -1.24891,0.57386 -1.51829,0.30365 -3.20755,-2.08997 -3.7983,-5.38206 -0.1637,-0.91223 -0.22273,-1.77981 -0.13118,-1.92794 0.0916,-0.14812 0.0862,-0.7444 -0.0119,-1.32504 -0.15003,-0.88802 -0.34426,-1.14035 -1.22263,-1.58847 -2.00091,-1.02078 -2.71068,-3.42761 -1.45194,-4.92353 l 0.62988,-0.74857 -0.69603,-0.012 c -4.13045,-0.0714 -4.27195,-0.0951 -4.52419,-0.75854 -0.19458,-0.5118 -0.55017,-0.70309 -1.77939,-0.95721 -0.84491,-0.17468 -2.2458,-0.67509 -3.11309,-1.11202 -0.99503,-0.50129 -1.61335,-0.68504 -1.6757,-0.498 -0.14224,0.42675 -0.99148,0.36482 -1.37762,-0.10045 -0.47623,-0.57381 -0.95361,-0.49435 -2.20576,0.36716 -1.37623,0.94686 -3.93908,3.23349 -3.79057,3.382 0.0603,0.0603 0.78377,-0.18838 1.6076,-0.55272 2.25216,-0.99601 4.56032,-1.05164 5.13972,-0.12387 0.3082,0.4935 0.27094,0.64082 -0.31785,1.25677 -0.36684,0.38376 -0.7883,1.23353 -0.93657,1.88837 -0.23596,1.04209 -0.19338,1.33916 0.34133,2.38125 0.49527,0.96525 0.5804,1.44104 0.44971,2.51354 -0.0887,0.72761 -0.0611,2.09682 0.0613,3.04271 0.12235,0.94589 0.23281,1.87035 0.24548,2.05436 0.0155,0.22556 0.2026,0.26866 0.57423,0.13229 0.30317,-0.11125 1.0706,-0.19872 1.70539,-0.19439 1.44169,0.01 2.4177,0.9748 2.4177,2.39026 0,0.81884 0.1097,0.95732 1.05932,1.33729 1.21905,0.48777 2.26261,1.60884 2.49886,2.68447 l 0.16342,0.74404 2.26512,-0.1986 c 1.24581,-0.10923 2.4977,-0.27242 2.78198,-0.36264 0.33806,-0.1073 0.83214,0.0764 1.42831,0.53115 1.51125,1.15269 2.50302,1.48662 3.92692,1.32219 0.88037,-0.10165 1.44623,-0.33432 1.7772,-0.73072 z m -26.71621,-3.16567 c -0.26131,-0.25936 -0.2917,-0.22897 -0.14811,0.14811 0.0994,0.26094 0.2473,0.40778 0.32876,0.32632 0.0815,-0.0815 1.7e-4,-0.29496 -0.18065,-0.47443 z m -1.06871,-2.60301 c -0.13942,-0.34855 -0.26104,-0.49464 -0.27027,-0.32464 -0.0224,0.41292 0.28581,1.19632 0.41848,1.06365 0.0579,-0.0579 -0.009,-0.39046 -0.14821,-0.73901 z m 25.85996,0.20424 c 0.062,-0.31963 -0.10194,-0.44109 -0.59531,-0.44109 -0.74177,0 -0.85994,0.24424 -0.36005,0.74414 0.4066,0.4066 0.84469,0.26763 0.95536,-0.30305 z m -24.57243,-2.73371 c 0.34845,-0.44298 0.46392,-0.80181 0.30816,-0.95757 -0.36422,-0.36422 -0.76264,-0.0248 -1.37127,1.16824 -0.53097,1.04077 -0.53123,1.05281 -0.0167,0.77747 0.28742,-0.15382 0.77335,-0.59849 1.07985,-0.98814 z m -1.37119,-0.21055 c 0.53824,-1.10786 0.44204,-1.73218 -0.20526,-1.33213 -0.46981,0.29036 -1.05802,1.67127 -0.89398,2.09874 0.25247,0.65793 0.48641,0.49478 1.09924,-0.76661 z m 34.9862,0.3865 c 0,-0.14552 -0.11906,-0.26458 -0.26458,-0.26458 -0.14552,0 -0.26458,0.11906 -0.26458,0.26458 0,0.14552 0.11906,0.26458 0.26458,0.26458 0.14552,0 0.26458,-0.11906 0.26458,-0.26458 z m -5.82083,-5.93751 c 0,-0.35521 0.11906,-0.71943 0.26458,-0.80936 0.15437,-0.0954 0.26459,0.17364 0.26459,0.64584 0,1.0136 0.3561,1.02314 1.34327,0.036 0.66222,-0.66222 0.77339,-0.97705 0.77339,-2.19009 0,-0.88194 -0.16297,-1.64937 -0.43176,-2.03312 -0.41393,-0.59096 -0.40027,-0.64188 0.33073,-1.23265 l 0.76249,-0.61622 -2.12718,-2.10027 c -2.35934,-2.3295 -3.60889,-2.9124 -4.28654,-1.99962 -0.46489,0.62619 -0.36605,3.43304 0.15012,4.26302 0.3194,0.51359 0.31171,0.73745 -0.057,1.659 -0.23444,0.58592 -0.41866,1.50938 -0.40939,2.05214 0.0143,0.83719 0.1976,1.13728 1.2087,1.97902 1.40905,1.17301 2.21402,1.29894 2.21402,0.34634 z m -15.54427,-10.46584 c 0.49689,-0.54833 0.7276,-1.09127 0.7276,-1.71233 0,-1.82871 -1.09559,-3.09065 -2.13389,-2.45792 -0.47503,0.28948 -0.61451,0.24986 -1.0678,-0.30334 -1.07162,-1.30779 -3.94206,-0.64572 -3.94206,0.90924 0,0.54343 0.18766,0.6114 2.48703,0.90082 1.36787,0.17218 2.82638,0.41477 3.24115,0.5391 1.20999,0.3627 -4.6e-4,0.30885 -2.81776,-0.12534 -3.17598,-0.48948 -3.08077,-0.49449 -2.51354,0.13229 0.37256,0.41167 0.83695,0.53502 2.09153,0.55554 0.88695,0.0145 1.91029,0.13022 2.27409,0.25715 0.42183,0.14718 -0.0953,0.17607 -1.42741,0.0798 -1.88275,-0.13613 -2.07203,-0.10715 -1.91823,0.29365 0.0939,0.24458 0.17064,0.59868 0.17064,0.78688 0,0.18821 0.56555,0.5764 1.25677,0.86264 1.53574,0.63596 2.52503,0.43706 3.57188,-0.71813 z m 10.21871,0.50052 c 0.46135,-0.16083 0.95955,-0.51801 1.10712,-0.79375 0.14757,-0.27573 0.44271,-0.50134 0.65587,-0.50134 0.23534,0 0.38757,-0.25565 0.38757,-0.65086 v -0.65086 l -2.66397,0.10825 c -1.46518,0.0595 -2.96153,-0.005 -3.32523,-0.14316 -0.60951,-0.23174 -0.58397,-0.1571 0.32644,0.95394 0.85354,1.04164 1.98625,1.9244 2.51443,1.9596 0.0874,0.006 0.53642,-0.12099 0.99777,-0.28182 z m 1.52293,-3.06447 c 0.454,-0.17421 0.48004,-0.87765 0.0323,-0.87305 -0.1819,0.002 -0.92604,0.29978 -1.65365,0.66201 l -1.32291,0.6586 1.29059,-0.15412 c 0.70983,-0.0848 1.45397,-0.21682 1.65365,-0.29344 z m -0.12106,-1.60405 c -0.13097,-0.25467 -0.29493,-0.64162 -0.36436,-0.8599 -0.0694,-0.21828 -0.18394,-0.01 -0.25451,0.46302 -0.10566,0.7082 -0.0414,0.8599 0.36436,0.8599 0.38352,0 0.4399,-0.10257 0.25451,-0.46302 z m 2.75485,-3.2764 c 0.10192,-0.16492 0.16391,-1.0778 0.13775,-2.02863 -0.0273,-0.99261 0.0728,-1.80317 0.23504,-1.90345 0.34471,-0.21304 -0.66605,-1.58892 -1.16725,-1.58892 -0.52209,0 -3.32837,3.072 -3.32837,3.64352 0,1.26175 3.5143,2.86211 4.12283,1.87748 z m -18.21189,-1.28477 c 1.03909,-0.63354 1.08429,-1.13534 0.17322,-1.92288 -0.37767,-0.32646 -0.85698,-0.92098 -1.06513,-1.32116 -0.39944,-0.76797 -1.53851,-1.02472 -1.76074,-0.39688 -0.12334,0.34846 0.043,3.27129 0.21833,3.83646 0.15514,0.50004 1.46622,0.39473 2.43432,-0.19554 z"
         id="path1018"
         inkscape:connector-curvature="0" />
      <path
         style="fill:#e3ba3b;stroke-width:0.26458335"
         d="m 122.61765,206.76209 c -0.81047,-0.56768 -0.73606,-1.44578 0.225,-2.6551 l 0.81303,-1.02308 -1.14376,-0.48447 c -1.51042,-0.63978 -2.648,-1.73337 -2.45048,-2.3557 0.10229,-0.32228 0.0166,-0.47811 -0.26296,-0.47811 -0.23831,0 -0.4147,0.22507 -0.4147,0.52917 0,0.70083 -0.37861,0.67117 -0.84435,-0.0662 -0.51755,-0.81932 -1.5369,-3.35914 -1.5369,-3.82933 0,-0.21193 -0.25224,-0.58958 -0.56054,-0.83922 -0.76575,-0.62007 -1.10609,-2.86209 -0.74203,-4.88828 0.49354,-2.74689 2.35037,-6.16013 4.29774,-7.90018 0.44449,-0.39717 0.75338,-0.77691 0.68642,-0.84386 -0.0669,-0.067 -0.83341,0.16812 -1.70323,0.52239 -0.86982,0.35426 -1.68492,0.61023 -1.81133,0.5688 -0.42308,-0.13864 2.45613,-3.02256 4.1688,-4.17561 l 1.69276,-1.13965 -0.69919,-1.2593 c -0.48951,-0.88164 -0.89756,-1.29094 -1.36065,-1.36481 l -0.66146,-0.10552 0.70243,-0.0396 c 0.65703,-0.0371 0.69362,-0.10526 0.56625,-1.05492 -0.13263,-0.98883 0.30315,-2.25101 1.11108,-3.21806 0.18236,-0.21828 0.39684,-1.4089 0.4766,-2.64583 0.15012,-2.32774 0.74893,-4.50585 1.38356,-5.03255 0.59264,-0.49185 1.23656,-0.0931 2.63925,1.63438 2.55962,3.1523 2.1601,2.89593 4.07665,2.61592 0.93247,-0.13623 1.78236,-0.3884 1.88865,-0.56037 0.10628,-0.17197 0.32562,-0.23086 0.48741,-0.13087 0.18769,0.116 0.29416,-0.0732 0.29416,-0.52268 v -0.70448 l 0.89053,0.78189 c 0.78813,0.692 1.15667,0.80349 3.20542,0.96972 l 2.31491,0.18783 2.05585,-2.00064 c 2.14322,-2.08566 3.15037,-2.50788 3.66789,-1.53763 0.13583,0.25466 0.38417,1.59412 0.55185,2.97656 0.16769,1.38245 0.41148,2.62021 0.54176,2.75057 0.13028,0.13036 0.16786,0.58208 0.0835,1.00382 -0.19873,0.99364 0.62885,2.58399 1.36667,2.62631 0.40057,0.023 0.42634,0.0596 0.10249,0.14584 -0.23797,0.0633 -0.50124,0.43648 -0.58505,0.8292 -0.25314,1.18619 -1.15108,2.37922 -2.2122,2.93923 -0.55189,0.29126 -0.80599,0.53483 -0.56466,0.54126 0.72849,0.0194 3.34612,2.33606 5.02085,4.44354 1.6893,2.1258 2.57075,3.69331 3.57066,6.34982 l 0.62945,1.6723 -1.35404,-0.17962 c -1.24581,-0.16526 -1.3422,-0.13957 -1.20579,0.32145 0.77808,2.62966 1.01187,4.1022 0.88044,5.54562 -0.17115,1.8797 -1.14907,4.68498 -1.58279,4.5404 -0.16546,-0.0551 -0.64032,0.41223 -1.05523,1.03863 -0.71879,1.08517 -1.84606,2.19318 -2.74064,2.69382 -0.36331,0.20332 -0.33896,0.36002 0.20205,1.30005 0.52178,0.9066 0.56161,1.13339 0.26238,1.49394 -0.51162,0.61647 -2.05924,0.52835 -3.90696,-0.22244 -1.45504,-0.59123 -1.78333,-0.62838 -3.77727,-0.42737 -3.24083,0.32671 -6.85324,-0.0481 -9.66595,-1.00299 -2.18689,-0.7424 -2.39792,-0.77106 -2.62812,-0.35686 -1.07362,1.93173 -3.96566,3.01787 -5.38623,2.02286 z m 3.77913,-0.75543 c 0.68745,-0.45044 0.69433,-0.47856 0.20169,-0.82362 -0.30359,-0.21264 -1.21933,-0.35725 -2.26229,-0.35725 -1.5236,0 -1.7743,0.0695 -1.92127,0.53257 -0.25012,0.78806 0.14131,0.97941 0.60194,0.29425 0.22012,-0.32742 0.52551,-0.59531 0.67865,-0.59531 0.15314,0 0.0196,0.27556 -0.29685,0.61236 -0.31641,0.3368 -0.57529,0.70873 -0.57529,0.82652 0,0.38051 2.83918,-0.008 3.57342,-0.48952 z m -2.77967,0.27366 c 0,-0.0549 0.18132,-0.25038 0.40293,-0.4343 0.33691,-0.27961 0.37563,-0.26324 0.23628,0.0999 -0.14232,0.37087 -0.63921,0.63082 -0.63921,0.3344 z m 21.96042,0.0675 c 0,-0.20519 0.12267,-0.19517 0.39687,0.0324 0.33489,0.27794 0.39688,0.22543 0.39688,-0.33617 0,-0.98179 -1.27401,-1.33549 -2.24719,-0.62388 -0.47182,0.345 -0.45803,0.38354 0.28016,0.78315 0.93558,0.50647 1.17328,0.53575 1.17328,0.14451 z m -12.92927,-3.29673 c 0.80211,-1.42126 0.81961,-1.43338 2.07049,-1.43338 0.69386,0 1.89119,-0.11941 2.66074,-0.26535 1.3021,-0.24694 1.46068,-0.21846 2.28518,0.41042 1.40466,1.07139 2.7057,1.51521 3.88769,1.3262 0.84259,-0.13474 1.15893,-0.0601 1.63289,0.38514 0.44974,0.42251 0.76576,0.50759 1.34514,0.36218 1.04632,-0.26261 3.44378,-2.73222 4.06951,-4.19196 0.28458,-0.66391 0.66626,-1.17611 0.84818,-1.13822 0.42036,0.0875 0.95915,-1.88901 0.98732,-3.62205 0.0166,-1.01865 -0.0493,-1.23913 -0.29621,-0.99219 -0.19301,0.19301 -1.1318,0.3175 -2.39439,0.3175 -2.47359,0 -3.24963,0.33703 -4.31464,1.87384 -0.92425,1.33369 -2.18167,1.96333 -3.09229,1.54842 -0.64335,-0.29313 -1.80036,-1.93399 -2.31984,-3.28997 -0.16725,-0.43656 -0.40701,-2.0439 -0.53279,-3.57187 -0.12579,-1.52797 -0.31352,-3.06464 -0.41718,-3.41481 -0.13336,-0.45051 -0.0989,-0.58134 0.11779,-0.44741 0.16844,0.1041 0.30626,0.41289 0.30626,0.6862 0,0.42189 0.1498,0.47648 0.99219,0.36155 0.5457,-0.0745 1.43555,-0.32177 1.97744,-0.54959 l 0.98525,-0.41422 1.06603,0.9631 c 1.27706,1.15374 2.12284,1.27392 2.12284,0.30164 0,-0.36381 0.11906,-0.66146 0.26458,-0.66146 0.14552,0 0.26459,0.29765 0.26459,0.66146 0,0.86854 0.39576,0.83556 1.34327,-0.11194 0.66334,-0.66334 0.77339,-0.97618 0.77339,-2.19839 0,-0.84335 -0.15856,-1.63463 -0.38846,-1.93858 -0.53524,-0.70767 -0.51224,-0.79078 0.37415,-1.35201 l 0.77944,-0.4935 -1.30872,-1.492 c -1.4922,-1.70117 -3.49435,-3.12921 -4.38725,-3.12921 -0.85637,0 -1.23482,0.88081 -1.09627,2.55149 0.0646,0.77949 0.10314,1.41726 0.0855,1.41726 -0.0176,0 -0.49903,-0.23812 -1.06989,-0.52917 -1.40295,-0.71526 -2.1974,-0.6672 -3.91615,0.23691 -1.37054,0.72095 -1.59158,0.75764 -3.75226,0.62284 -2.07763,-0.12962 -2.31763,-0.2003 -2.52413,-0.74343 -0.23032,-0.6058 -0.46659,-0.72578 -2.06339,-1.04779 -0.48336,-0.0975 -1.65466,-0.529 -2.60288,-0.95894 -1.3802,-0.62582 -1.80077,-0.71804 -2.10878,-0.46241 -0.30801,0.25563 -0.53948,0.20491 -1.16056,-0.25427 l -0.77581,-0.57358 -1.4214,0.99502 c -1.61973,1.13386 -2.66664,2.0265 -3.61944,3.08609 l -0.66145,0.73559 1.5875,-0.71536 c 0.87312,-0.39345 1.97781,-0.80931 2.45486,-0.92413 1.28878,-0.31019 2.82238,-0.0276 3.20885,0.5912 0.28537,0.45695 0.23891,0.62686 -0.33578,1.22806 -0.36684,0.38376 -0.7883,1.23353 -0.93657,1.88837 -0.23927,1.05674 -0.19542,1.33323 0.39004,2.45885 0.36279,0.69752 0.58895,1.38259 0.50256,1.52236 -0.24983,0.40423 -0.16275,4.26634 0.11774,5.22198 0.2264,0.77133 0.16775,0.9682 -0.52283,1.75472 -0.61743,0.70322 -0.77783,1.13465 -0.77783,2.09213 0,0.66343 0.11906,1.27982 0.26458,1.36975 0.14552,0.0899 0.26531,0.90064 0.26619,1.80156 l 0.002,1.63803 3.7687,1.08734 c 2.07279,0.59804 3.86253,1.0347 3.9772,0.97036 0.11467,-0.0643 0.57252,-0.76201 1.01745,-1.55037 z m -13.80634,-3.69762 c -0.46722,-0.56297 -0.61925,-0.2744 -0.20495,0.38901 0.1915,0.30665 0.3896,0.4333 0.44022,0.28145 0.0506,-0.15185 -0.0553,-0.45356 -0.23527,-0.67046 z m -1.28777,-2.79057 c -0.13942,-0.34855 -0.26104,-0.49464 -0.27027,-0.32464 -0.0224,0.41292 0.28581,1.19632 0.41848,1.06365 0.0579,-0.0579 -0.009,-0.39046 -0.14821,-0.73901 z m 25.90671,0.29231 c 0,-0.41157 -0.17639,-0.52916 -0.79375,-0.52916 -0.90997,0 -0.95092,0.0696 -0.37798,0.64256 0.5772,0.57719 1.17173,0.51965 1.17173,-0.1134 z m 0.79375,-0.2802 c 0,-0.13693 -0.11906,-0.24896 -0.26458,-0.24896 -0.14552,0 -0.26459,0.18562 -0.26459,0.41249 0,0.22687 0.11907,0.3389 0.26459,0.24897 0.14552,-0.0899 0.26458,-0.27556 0.26458,-0.4125 z m -26.85452,-2.36715 c 0.48062,-1.06584 1.18994,-1.89213 1.18994,-1.38619 0,0.14552 -0.16936,0.40514 -0.37635,0.57692 -0.37828,0.31395 -1.03341,1.86912 -0.78738,1.86912 0.93039,0 4.59511,-3.06223 4.59997,-3.84373 0.008,-1.27728 -2.03673,-2.77085 -3.79327,-2.77085 -1.51422,0 -2.10952,0.71412 -2.23475,2.68082 -0.10706,1.68139 0.2993,3.93376 0.70971,3.93376 0.11781,0 0.42927,-0.47693 0.69213,-1.05985 z m -1.17848,-0.65994 c 0.0162,-0.45941 1.02287,-2.13585 1.03267,-1.71979 0.005,0.21828 -0.22721,0.75406 -0.51634,1.19063 -0.28912,0.43656 -0.52147,0.67468 -0.51633,0.52916 z m 4.88196,0.13229 c 0.26339,-0.29104 0.41936,-0.52916 0.3466,-0.52916 -0.0728,0 -0.3478,0.23812 -0.61118,0.52916 -0.26339,0.29105 -0.41936,0.52917 -0.3466,0.52917 0.0728,0 0.34779,-0.23812 0.61118,-0.52917 z m 9.98802,-15.87418 c 1.52208,-1.67962 0.48308,-4.73673 -1.47382,-4.33653 -0.53208,0.10881 -0.84313,0.0201 -1.0839,-0.3092 -0.48818,-0.66762 -2.56777,-0.6742 -3.30137,-0.0104 -0.68966,0.62401 -0.74836,1.73225 -0.094,1.77562 0.42001,0.0278 0.41815,0.0423 -0.02,0.15554 -0.45866,0.11855 -0.45992,0.15033 -0.0251,0.63076 0.25181,0.27826 0.70728,0.50775 1.01215,0.50998 0.36426,0.003 0.44367,0.0744 0.23162,0.20908 -0.21794,0.13847 -0.25488,0.45858 -0.11381,0.98608 0.16375,0.61228 0.46216,0.8713 1.38103,1.19875 1.46495,0.52205 2.49773,0.28226 3.48724,-0.80965 z m -4.36563,-2.55729 c 0.18191,-0.0734 0.47956,-0.0734 0.66146,0 0.1819,0.0734 0.0331,0.13345 -0.33073,0.13345 -0.3638,0 -0.51263,-0.0601 -0.33073,-0.13345 z m 15.34584,2.66475 c 0.32742,-0.21178 0.59531,-0.50138 0.59531,-0.64354 0,-0.14217 0.17859,-0.25849 0.39688,-0.25849 0.43923,0 0.46698,-0.20208 0.22705,-1.65364 -0.11038,-0.66779 -0.30407,-0.99351 -0.5924,-0.99624 -0.27126,-0.003 -0.32144,-0.0754 -0.1368,-0.19844 0.53396,-0.35595 -0.95793,-3.52803 -1.98438,-4.21921 -2.24488,-1.51165 -5.31868,0.065 -5.31868,2.7281 0,1.04479 0.16145,1.32496 1.83729,3.18824 1.01051,1.12353 2.11184,2.19798 2.44739,2.38766 0.6732,0.38053 1.61571,0.25586 2.52834,-0.33444 z m -0.51263,-3.46402 c 0.19099,-0.0764 0.4192,-0.067 0.50712,0.0209 0.0879,0.0879 -0.0684,0.15045 -0.34727,0.13897 -0.30823,-0.0127 -0.37092,-0.0754 -0.15985,-0.15986 z m -3.58926,-1.18271 c -0.2218,-0.2218 -0.22741,-0.45659 -0.0205,-0.85989 0.23418,-0.45653 0.22262,-0.49621 -0.0653,-0.22405 -0.46001,0.43483 -0.77322,0.4195 -0.77322,-0.0378 0,-0.3817 0.54839,-0.68977 1.22788,-0.68977 0.21497,0 0.32498,0.10659 0.24446,0.23686 -0.0805,0.13028 0.0315,0.30513 0.24897,0.38857 0.5233,0.20081 0.50718,1.12713 -0.0231,1.33064 -0.53193,0.20412 -0.48184,0.21275 -0.8391,-0.14452 z m -1.6528,-1.78414 c 0,-0.30126 1.78512,-1.87949 2.12587,-1.87949 0.51425,0 0.23068,0.46046 -0.78744,1.27863 -1.09649,0.88117 -1.33843,0.98978 -1.33843,0.60086 z m 9.14991,-1.12099 c 0.10192,-0.16492 0.16391,-1.0778 0.13775,-2.02863 -0.0273,-0.99261 0.0728,-1.80317 0.23504,-1.90345 0.34471,-0.21304 -0.66605,-1.58892 -1.16725,-1.58892 -0.52209,0 -3.32837,3.072 -3.32837,3.64352 0,1.26175 3.5143,2.86211 4.12283,1.87748 z m -18.21189,-1.28477 c 1.03909,-0.63354 1.08429,-1.13534 0.17322,-1.92288 -0.37767,-0.32646 -0.85698,-0.92098 -1.06513,-1.32116 -0.39944,-0.76797 -1.53851,-1.02472 -1.76074,-0.39688 -0.12334,0.34846 0.043,3.27129 0.21833,3.83646 0.15514,0.50004 1.46622,0.39473 2.43432,-0.19554 z m -5.8043,7.48928 c 0.191,-0.0764 0.4192,-0.067 0.50712,0.0209 0.0879,0.0879 -0.0683,0.15045 -0.34726,0.13896 -0.30823,-0.0127 -0.37092,-0.0754 -0.15986,-0.15985 z"
         id="path1016"
         inkscape:connector-curvature="0" />
      <path
         style="fill:#343128;stroke-width:0.26458335"
         d="m 122.61765,206.76209 c -0.81299,-0.56944 -0.73784,-1.51577 0.20571,-2.59041 0.43656,-0.49722 0.79375,-0.96144 0.79375,-1.0316 0,-0.0702 -0.51553,-0.32444 -1.14562,-0.56507 -1.1788,-0.45019 -2.78954,-1.87283 -2.47574,-2.18663 0.0971,-0.0971 0.46367,0.13331 0.81462,0.512 0.8207,0.88554 1.56983,1.18713 6.37862,2.56794 2.18281,0.62677 4.2664,1.28382 4.6302,1.4601 0.36381,0.17628 1.91162,0.45573 3.43959,0.621 3.54717,0.38369 6.09298,0.10056 9.46011,-1.05208 2.2225,-0.76081 2.77066,-1.07337 3.971,-2.26427 0.76592,-0.75989 1.62542,-1.92482 1.91001,-2.58873 0.28458,-0.66391 0.66626,-1.17611 0.84818,-1.13822 0.40926,0.0852 0.95825,-1.87164 0.98732,-3.5193 0.0117,-0.66382 -0.22007,-2.12846 -0.51508,-3.25476 -0.295,-1.12629 -0.45816,-2.17435 -0.36257,-2.32902 0.10028,-0.16226 0.61133,-0.22253 1.20811,-0.14249 0.96222,0.12906 1.02242,0.0989 0.8638,-0.43278 -0.0938,-0.31433 -0.69518,-1.64308 -1.33645,-2.95276 -1.99006,-4.06434 -6.12336,-8.33438 -8.06749,-8.33438 -0.42067,0 -0.76486,0.11349 -0.76486,0.2522 0,0.37972 -2.22173,1.29428 -4.89479,2.01492 -3.80324,1.02532 -7.86236,0.77484 -11.07902,-0.68367 -1.44177,-0.65372 -1.87617,-0.7525 -2.1844,-0.49669 -0.30801,0.25563 -0.53948,0.20491 -1.16056,-0.25427 l -0.77581,-0.57358 -1.4214,0.99502 c -1.61259,1.12886 -2.66186,2.02243 -3.61572,3.07918 l -0.65774,0.72869 1.24233,-0.53252 c 0.68327,-0.29289 1.6892,-0.61636 2.23538,-0.71883 l 0.99307,-0.1863 -1.66081,1.71778 c -1.76998,1.83069 -2.30347,2.59531 -3.56469,5.10911 -0.64028,1.27617 -0.81553,2.00261 -0.89358,3.70417 l -0.0971,2.11667 0.65859,-1.19063 c 0.36222,-0.65484 0.66396,-1.02609 0.67053,-0.82498 0.007,0.20111 -0.23815,0.77033 -0.54384,1.26495 -0.36769,0.59493 -0.5003,1.12039 -0.39183,1.55258 0.23228,0.9255 0.53053,0.81328 1.08061,-0.40657 0.48062,-1.06584 1.18994,-1.89213 1.18994,-1.38619 0,0.14552 -0.16936,0.40514 -0.37635,0.57692 -0.37828,0.31395 -1.03341,1.86912 -0.78738,1.86912 0.43289,0 2.02458,-1.05055 3.26706,-2.15633 0.79304,-0.70579 1.56694,-1.27798 1.71979,-1.27153 0.51069,0.0215 -2.98439,3.06263 -4.09583,3.56382 -1.2845,0.57923 -1.29124,0.90363 -0.072,3.46536 0.58053,1.21972 0.75992,1.42878 0.82611,0.96275 0.0974,-0.6856 0.0681,-0.67507 0.94719,-0.34084 0.44326,0.16852 0.72604,0.1627 0.83725,-0.0172 0.10564,-0.17093 0.34826,-0.1085 0.65415,0.16832 0.26742,0.24202 0.61279,0.36181 0.76748,0.26621 0.15469,-0.0956 0.28126,0.0118 0.28126,0.23865 0,0.54428 -1.02647,0.53883 -1.23575,-0.007 -0.1285,-0.33487 -0.20436,-0.3486 -0.37756,-0.0684 -0.17261,0.2793 -0.28362,0.28382 -0.54526,0.0222 -0.49668,-0.49667 -1.01643,-0.39407 -1.01643,0.20066 0,0.70083 -0.37861,0.67117 -0.84435,-0.0662 -0.51755,-0.81932 -1.5369,-3.35914 -1.5369,-3.82933 0,-0.21193 -0.25224,-0.58958 -0.56054,-0.83922 -1.13552,-0.91949 -1.1691,-4.70653 -0.0652,-7.34864 0.66155,-1.58333 2.1703,-3.82524 3.4865,-5.18073 1.38785,-1.42928 1.22325,-1.53511 -0.9161,-0.58899 -0.83047,0.36727 -1.6219,0.63045 -1.75873,0.58484 -0.41359,-0.13786 2.37206,-2.99383 3.97592,-4.07628 0.82535,-0.55704 1.62082,-1.09482 1.7677,-1.19508 0.16764,-0.11442 0.10546,-0.36085 -0.16702,-0.66194 -0.23875,-0.26381 -0.55525,-0.79836 -0.70335,-1.18788 -0.18339,-0.48236 -0.50568,-0.74379 -1.0106,-0.81977 l -0.74134,-0.11155 0.7276,-0.0396 c 0.69764,-0.038 0.72761,-0.0976 0.72761,-1.44772 0,-1.15209 0.14296,-1.59702 0.78639,-2.44739 0.68777,-0.909 0.78731,-1.26165 0.79375,-2.81224 0.0142,-3.41144 0.88909,-5.76621 2.00816,-5.40471 0.282,0.0911 1.04852,0.8357 1.70336,1.65466 2.58057,3.22732 2.29071,3.03747 4.20895,2.75675 0.93247,-0.13646 1.77543,-0.37759 1.87324,-0.53584 0.0978,-0.15826 0.36148,-0.21727 0.58594,-0.13114 0.32569,0.12498 0.37946,0.007 0.26622,-0.58568 l -0.1419,-0.7423 0.93388,0.81997 c 0.83817,0.73592 1.17116,0.83921 3.24879,1.00779 l 2.31491,0.18783 2.05585,-2.00064 c 2.14322,-2.08566 3.15037,-2.50788 3.66789,-1.53763 0.13583,0.25466 0.3835,1.58837 0.55038,2.96379 0.16687,1.37542 0.41967,2.64086 0.56177,2.81209 0.16823,0.2027 0.16708,0.55145 -0.003,0.99956 -0.21044,0.55352 -0.14682,0.86839 0.32504,1.60849 0.3227,0.50613 0.82484,0.93909 1.11589,0.96213 0.4062,0.0322 0.42863,0.0686 0.0965,0.15704 -0.23796,0.0633 -0.49955,0.44962 -0.58131,0.85841 -0.18024,0.90119 -1.31906,2.30215 -2.41433,2.97007 -0.50973,0.31084 -0.64408,0.49128 -0.36627,0.49191 0.7192,0.002 3.33424,2.3104 5.02086,4.43284 1.6893,2.1258 2.57075,3.69331 3.57066,6.34982 l 0.62944,1.6723 -1.35404,-0.17962 c -1.2458,-0.16526 -1.34219,-0.13957 -1.20578,0.32145 0.77808,2.62966 1.01187,4.1022 0.88044,5.54562 -0.17115,1.8797 -1.14907,4.68498 -1.58279,4.5404 -0.16546,-0.0551 -0.64032,0.41223 -1.05523,1.03863 -0.71879,1.08517 -1.84606,2.19318 -2.74064,2.69382 -0.36331,0.20332 -0.33896,0.36002 0.20205,1.30005 0.52178,0.9066 0.56161,1.13339 0.26238,1.49394 -0.51855,0.62482 -2.15881,0.52713 -3.87221,-0.23062 -1.38323,-0.61173 -1.63656,-0.64007 -3.77786,-0.42265 -3.11123,0.31591 -6.9983,-0.0998 -9.82966,-1.05124 -2.07239,-0.69641 -2.26785,-0.72028 -2.49857,-0.30515 -1.07362,1.93173 -3.96566,3.01787 -5.38623,2.02286 z m 24.1505,-0.38188 c -0.57723,-0.63783 -0.23892,-0.70767 0.44219,-0.0913 0.26612,0.24083 0.48385,0.31001 0.48385,0.15373 0,-0.48713 -0.91079,-1.9111 -1.2235,-1.91286 -0.26284,-0.002 -1.8977,0.51863 -3.00983,0.95753 -0.26774,0.10566 -0.0162,0.32219 0.77294,0.66545 0.90937,0.39554 1.21546,0.43497 1.37483,0.17711 0.15303,-0.24762 0.24934,-0.21621 0.37985,0.12389 0.0961,0.25058 0.41867,0.4556 0.7167,0.4556 0.5251,0 0.52705,-0.0164 0.063,-0.52917 z m -20.77751,-0.1283 c 0.81708,-0.42252 2.00068,-1.8833 1.66616,-2.05634 -0.11178,-0.0578 -0.96136,-0.32739 -1.88797,-0.59904 l -1.68473,-0.49392 -0.75702,0.9112 c -0.84041,1.01158 -1.17729,1.78459 -0.89583,2.05561 0.10195,0.0982 0.36547,-0.0894 0.5856,-0.41681 0.22012,-0.32742 0.52551,-0.59531 0.67865,-0.59531 0.15314,0 0.0196,0.27556 -0.29685,0.61236 -0.31641,0.3368 -0.57529,0.69399 -0.57529,0.79375 0,0.3422 2.40742,0.18145 3.16728,-0.2115 z m -2.37353,0.0284 c 0,-0.0549 0.18132,-0.25038 0.40293,-0.4343 0.33691,-0.27961 0.37563,-0.26324 0.23628,0.0999 -0.14232,0.37087 -0.63921,0.63082 -0.63921,0.3344 z m 15.02186,-27.01726 c 2.83692,-0.76004 4.02814,-1.31054 4.02814,-1.86152 0,-0.27419 0.29476,-0.39037 0.99219,-0.39107 1.19875,-0.001 2.41007,-0.69682 3.34279,-1.91968 1.04065,-1.36437 0.92871,-1.59314 -0.69696,-1.42432 l -1.38906,0.14425 1.43707,-0.32011 1.43708,-0.32012 -0.79487,-0.92378 c -0.71864,-0.83519 -0.76229,-0.98694 -0.45514,-1.58227 0.21735,-0.42129 0.24811,-0.7501 0.0854,-0.91281 -0.13988,-0.13988 -0.25523,-0.73654 -0.25633,-1.3259 -0.003,-1.42368 -0.50107,-4.45381 -0.77869,-4.73409 -0.3451,-0.34841 -1.28339,0.27933 -3.37109,2.25535 l -1.92631,1.82325 -1.39273,-0.15183 c -2.99886,-0.32692 -3.5119,-0.43651 -3.9655,-0.84701 -0.43329,-0.39213 -0.46993,-0.38894 -0.46993,0.0409 0,0.32183 -0.13328,0.41504 -0.43041,0.30102 -0.23673,-0.0908 -0.56415,-0.0593 -0.72761,0.0701 -0.16345,0.12939 -1.17344,0.31854 -2.24442,0.42032 -1.79054,0.17017 -1.99812,0.13725 -2.57969,-0.4091 -0.34785,-0.32679 -0.63761,-0.72224 -0.64391,-0.87878 -0.006,-0.15653 -0.58767,-0.92777 -1.29193,-1.71386 -0.86511,-0.96563 -1.41477,-1.37773 -1.69447,-1.2704 -0.53871,0.20672 -0.88227,1.61041 -1.10757,4.52523 -0.15664,2.02651 -0.29059,2.50462 -0.9609,3.42996 -0.63731,0.87977 -0.76465,1.29339 -0.70055,2.27547 l 0.0783,1.20025 1.71979,0.15277 1.7198,0.15277 -1.62888,0.0457 c -1.4884,0.0417 -1.61694,0.0913 -1.4905,0.57484 0.12153,0.46472 0.38434,0.53547 2.15805,0.58098 l 2.01966,0.0518 -1.78594,0.0926 c -0.98226,0.0509 -1.78594,0.20012 -1.78594,0.33158 0,0.13147 0.42624,0.56414 0.9472,0.96149 0.74902,0.57131 0.99343,0.64764 1.16821,0.36484 0.17716,-0.28665 0.62355,-0.18211 2.24947,0.52681 2.48842,1.08497 3.32055,1.25428 6.35075,1.29215 1.77469,0.0222 3.00638,-0.13772 4.8354,-0.62773 z m -5.84964,-1.63424 c -0.34645,-0.34644 -0.18001,-0.93995 0.22049,-0.78626 0.6244,0.2396 0.46998,-0.5107 -0.19844,-0.96422 -0.44636,-0.30285 -0.52056,-0.48167 -0.29656,-0.71467 0.34308,-0.35686 2.47682,-0.88879 2.694,-0.6716 0.0796,0.0796 -0.0571,0.56819 -0.30388,1.08568 -0.47169,0.98914 -0.39815,1.43371 0.23716,1.43371 0.20969,0 0.38126,0.11204 0.38126,0.24897 0,0.43697 -0.50166,0.57812 -1.03681,0.29172 -0.34431,-0.18427 -0.57367,-0.18838 -0.68254,-0.0122 -0.18672,0.30211 -0.75194,0.35164 -1.01468,0.0889 z m -6.06337,-2.38008 c 0.18191,-0.0734 0.47956,-0.0734 0.66146,0 0.1819,0.0734 0.0331,0.13345 -0.33073,0.13345 -0.3638,0 -0.51263,-0.0601 -0.33073,-0.13345 z m 14.83321,-0.79927 c 0.19099,-0.0764 0.4192,-0.067 0.50712,0.0209 0.0879,0.0879 -0.0684,0.15045 -0.34727,0.13897 -0.30823,-0.0127 -0.37092,-0.0754 -0.15985,-0.15986 z m 1.05833,-0.26458 c 0.191,-0.0764 0.4192,-0.067 0.50712,0.0209 0.0879,0.0879 -0.0683,0.15045 -0.34727,0.13896 -0.30822,-0.0127 -0.37091,-0.0754 -0.15985,-0.15985 z m 1.0418,-0.25907 c 0.1819,-0.0734 0.47956,-0.0734 0.66146,0 0.1819,0.0734 0.0331,0.13345 -0.33073,0.13345 -0.3638,0 -0.51263,-0.06 -0.33073,-0.13345 z m -15.01511,-0.88311 c 0,-0.29104 0.14883,-0.53099 0.33073,-0.53321 0.22398,-0.003 0.2051,-0.0835 -0.0585,-0.2502 -0.56412,-0.35676 -0.14741,-0.63194 0.6528,-0.4311 0.89053,0.22351 1.12933,0.87243 0.4972,1.3511 -0.73226,0.5545 -1.42225,0.48824 -1.42225,-0.13659 z m 9.32572,0.22405 c -0.2218,-0.2218 -0.22741,-0.45659 -0.0205,-0.85989 0.23418,-0.45653 0.22262,-0.49621 -0.0653,-0.22405 -0.46001,0.43483 -0.77322,0.4195 -0.77322,-0.0378 0,-0.3817 0.54839,-0.68977 1.22788,-0.68977 0.21497,0 0.32498,0.10659 0.24446,0.23686 -0.0805,0.13028 0.0315,0.30513 0.24897,0.38857 0.5233,0.20081 0.50718,1.12713 -0.0231,1.33064 -0.53193,0.20412 -0.48184,0.21275 -0.8391,-0.14452 z m -7.97634,-2.36151 c -0.33122,-0.448 -0.53942,-0.87735 -0.46267,-0.95411 0.18111,-0.18111 1.49454,1.13013 1.49454,1.49205 0,0.50631 -0.42277,0.28592 -1.03187,-0.53794 z m 6.32354,0.57737 c 0,-0.30126 1.78512,-1.87949 2.12587,-1.87949 0.51425,0 0.23068,0.46046 -0.78744,1.27863 -1.09649,0.88117 -1.33843,0.98978 -1.33843,0.60086 z m 5.95313,26.11136 c -0.70322,-0.4033 -1.05413,-0.87247 -1.86646,-2.4955 -0.53032,-1.05959 -0.73213,-1.99434 -0.91393,-4.23333 -0.12832,-1.58041 -0.31813,-3.15999 -0.42179,-3.51016 -0.12102,-0.40883 -0.0916,-0.57685 0.0821,-0.46947 0.31502,0.1947 0.96481,3.25405 0.76113,3.5836 -0.39879,0.64526 0.99811,5.59234 1.5791,5.59234 0.0745,0 0.24614,-0.26789 0.38145,-0.59531 0.20756,-0.50227 0.23896,-0.43768 0.20087,0.4133 -0.0449,1.00436 0.30969,1.49219 1.09108,1.50088 0.27783,0.003 0.3344,-0.30812 0.23814,-1.30995 -0.0694,-0.7227 -0.0251,-1.25145 0.0986,-1.17501 0.12368,0.0764 0.22488,0.62667 0.22488,1.22271 v 1.08373 l 0.55777,-0.50403 c 1.36218,-1.23094 2.35265,-4.41544 2.35265,-7.56408 0,-0.84954 0.11852,-1.5389 0.26458,-1.5389 0.34402,0 0.33912,2.38551 -0.009,4.38317 -0.50705,2.90966 -1.784,5.14958 -3.22137,5.65065 -0.44954,0.15671 -0.82934,0.28131 -0.84401,0.27688 -0.0147,-0.004 -0.26479,-0.14461 -0.55583,-0.31152 z m -20.81941,-21.02784 c 0.191,-0.0764 0.4192,-0.067 0.50712,0.0209 0.0879,0.0879 -0.0683,0.15045 -0.34726,0.13896 -0.30823,-0.0127 -0.37092,-0.0754 -0.15986,-0.15985 z"
         id="path1014"
         inkscape:connector-curvature="0" />
    </g>
  </g>
</svg>
